<?xml version="1.0" encoding="utf-8"?>
<!-- Generator: Adobe Illustrator 23.0.4, SVG Export Plug-In . SVG Version: 6.00 Build 0)  -->
<svg version="1.1" id="Layer_1" xmlns="http://www.w3.org/2000/svg" xmlns:xlink="http://www.w3.org/1999/xlink" x="0px" y="0px"
	 viewBox="0 0 801.1 673.7" style="enable-background:new 0 0 801.1 673.7;" xml:space="preserve">
<style type="text/css">
	.st0{fill:none;stroke:#D2E0E1;stroke-width:2.2381;stroke-miterlimit:10;}
	.st1{fill:#4B929C;}
	.st2{fill:#93BEC4;}
	.st3{fill:#6FA8B0;}
	.st4{fill:#B7D3D7;}
	.st5{fill:#F2DFBF;}
	.st6{fill:#EDD2A5;}
	.st7{fill:#E8C78E;}
	.st8{fill:#E1B469;}
	.st9{fill:#D9A143;}
	.st10{fill:none;stroke:#000000;}
	.st11{fill:#FFFFFF;}
	.st12{fill:url(#SVGID_1_);}
	.st13{fill:#211915;}
	.st14{display:none;fill:#009ADA;enable-background:new    ;}
	.st15{font-family:'ProximaNova-Regular';}
	.st16{font-size:16px;}
	.st17{fill:#808183;}
</style>
<g id="Guides">
</g>
<g id="Lines">
	<g>
		<line class="st0" x1="22.5" y1="26.5" x2="772.5" y2="26.5"/>
	</g>
</g>
<g id="Charts">
	<rect x="97.4" y="487" class="st1" width="56.2" height="60.7"/>
	<rect x="153.6" y="487" class="st2" width="56.2" height="60.7"/>
	<rect x="209.8" y="487" class="st3" width="56.2" height="60.7"/>
	<rect x="266" y="487" class="st2" width="56.2" height="60.7"/>
	<rect x="322.2" y="487" class="st4" width="56.2" height="60.7"/>
	<rect x="378.4" y="487" class="st2" width="56.2" height="60.7"/>
	<rect x="434.6" y="487" class="st3" width="56.2" height="60.7"/>
	<rect x="490.8" y="487" class="st2" width="56.2" height="60.7"/>
	<rect x="547.1" y="487" class="st3" width="56.2" height="60.7"/>
	<rect x="603.3" y="487" class="st2" width="56.2" height="60.7"/>
	<rect x="659.5" y="487" class="st3" width="56.2" height="60.7"/>
	<rect x="715.7" y="487" class="st1" width="56.2" height="60.7"/>
	<rect x="97.4" y="426.2" class="st5" width="56.2" height="60.7"/>
	<rect x="153.6" y="426.2" class="st4" width="56.2" height="60.7"/>
	<rect x="209.8" y="426.2" class="st2" width="56.2" height="60.7"/>
	<rect x="266" y="426.2" class="st5" width="56.2" height="60.7"/>
	<rect x="322.2" y="426.2" class="st2" width="56.2" height="60.7"/>
	<rect x="378.4" y="426.2" class="st4" width="56.2" height="60.7"/>
	<rect x="434.6" y="426.2" class="st5" width="56.2" height="60.7"/>
	<rect x="490.8" y="426.2" class="st5" width="56.2" height="60.7"/>
	<rect x="547.1" y="426.2" class="st2" width="56.2" height="60.7"/>
	<rect x="603.3" y="426.2" class="st5" width="56.2" height="60.7"/>
	<rect x="659.5" y="426.2" class="st4" width="56.2" height="60.7"/>
	<rect x="715.7" y="426.2" class="st4" width="56.2" height="60.7"/>
	<rect x="97.4" y="365.5" class="st6" width="56.2" height="60.7"/>
	<rect x="153.6" y="365.5" class="st5" width="56.2" height="60.7"/>
	<rect x="209.8" y="365.5" class="st5" width="56.2" height="60.7"/>
	<rect x="266" y="365.5" class="st6" width="56.2" height="60.7"/>
	<rect x="322.2" y="365.5" class="st5" width="56.2" height="60.7"/>
	<rect x="378.4" y="365.5" class="st5" width="56.2" height="60.7"/>
	<rect x="434.6" y="365.5" class="st4" width="56.2" height="60.7"/>
	<rect x="490.8" y="365.5" class="st5" width="56.2" height="60.7"/>
	<rect x="547.1" y="365.5" class="st6" width="56.2" height="60.7"/>
	<rect x="603.3" y="365.5" class="st5" width="56.2" height="60.7"/>
	<rect x="659.5" y="365.5" class="st5" width="56.2" height="60.7"/>
	<rect x="715.7" y="365.5" class="st6" width="56.2" height="60.7"/>
	<rect x="97.4" y="304.7" class="st5" width="56.2" height="60.7"/>
	<rect x="153.6" y="304.7" class="st6" width="56.2" height="60.7"/>
	<rect x="209.8" y="304.7" class="st5" width="56.2" height="60.7"/>
	<rect x="266" y="304.7" class="st5" width="56.2" height="60.7"/>
	<rect x="322.2" y="304.7" class="st6" width="56.2" height="60.7"/>
	<rect x="378.4" y="304.7" class="st5" width="56.2" height="60.7"/>
	<rect x="434.6" y="304.7" class="st6" width="56.2" height="60.7"/>
	<rect x="490.8" y="304.7" class="st7" width="56.2" height="60.7"/>
	<rect x="547.1" y="304.7" class="st6" width="56.2" height="60.7"/>
	<rect x="603.3" y="304.7" class="st7" width="56.2" height="60.7"/>
	<rect x="659.5" y="304.7" class="st6" width="56.2" height="60.7"/>
	<rect x="715.7" y="304.7" class="st7" width="56.2" height="60.7"/>
	<rect x="97.4" y="244" class="st7" width="56.2" height="60.7"/>
	<rect x="153.6" y="244" class="st5" width="56.2" height="60.7"/>
	<rect x="209.8" y="244" class="st6" width="56.2" height="60.7"/>
	<rect x="266" y="244" class="st7" width="56.2" height="60.7"/>
	<rect x="322.2" y="244" class="st8" width="56.2" height="60.7"/>
	<rect x="378.4" y="244" class="st7" width="56.2" height="60.7"/>
	<rect x="434.6" y="244" class="st7" width="56.2" height="60.7"/>
	<rect x="490.8" y="244" class="st6" width="56.2" height="60.7"/>
	<rect x="547.1" y="244" class="st8" width="56.2" height="60.7"/>
	<rect x="603.3" y="244" class="st7" width="56.2" height="60.7"/>
	<rect x="659.5" y="244" class="st7" width="56.2" height="60.7"/>
	<rect x="715.7" y="244" class="st8" width="56.2" height="60.7"/>
	<rect x="97.4" y="183.3" class="st8" width="56.2" height="60.7"/>
	<rect x="153.6" y="183.3" class="st7" width="56.2" height="60.7"/>
	<rect x="209.8" y="183.3" class="st8" width="56.2" height="60.7"/>
	<rect x="266" y="183.3" class="st6" width="56.2" height="60.7"/>
	<rect x="322.2" y="183.3" class="st6" width="56.2" height="60.7"/>
	<rect x="378.4" y="183.3" class="st7" width="56.2" height="60.7"/>
	<rect x="434.6" y="183.3" class="st8" width="56.2" height="60.7"/>
	<rect x="490.8" y="183.3" class="st6" width="56.2" height="60.7"/>
	<rect x="547.1" y="183.3" class="st8" width="56.2" height="60.7"/>
	<rect x="603.3" y="183.3" class="st7" width="56.2" height="60.7"/>
	<rect x="659.5" y="183.3" class="st8" width="56.2" height="60.7"/>
	<rect x="715.7" y="183.3" class="st8" width="56.2" height="60.7"/>
	<rect x="97.4" y="122.5" class="st9" width="56.2" height="60.7"/>
	<rect x="153.6" y="122.5" class="st8" width="56.2" height="60.7"/>
	<rect x="209.8" y="122.5" class="st9" width="56.2" height="60.7"/>
	<rect x="266" y="122.5" class="st7" width="56.2" height="60.7"/>
	<rect x="322.2" y="122.5" class="st8" width="56.2" height="60.7"/>
	<rect x="378.4" y="122.5" class="st9" width="56.2" height="60.7"/>
	<rect x="434.6" y="122.5" class="st9" width="56.2" height="60.7"/>
	<rect x="490.8" y="122.5" class="st8" width="56.2" height="60.7"/>
	<rect x="547.1" y="122.5" class="st7" width="56.2" height="60.7"/>
	<rect x="603.3" y="122.5" class="st8" width="56.2" height="60.7"/>
	<rect x="659.5" y="122.5" class="st8" width="56.2" height="60.7"/>
	<rect x="715.7" y="122.5" class="st9" width="56.2" height="60.7"/>
	<line class="st10" x1="97.4" y1="547.7" x2="771.9" y2="547.7"/>
	<polygon class="st11" points="518.9,217.8 513.2,221.8 515.2,215.1 509.7,210.9 516.7,210.8 518.9,204.2 521.2,210.8 528.2,210.9 
		522.6,215.1 524.7,221.8 	"/>
	<polygon class="st11" points="181.7,338.9 176,342.9 178,336.2 172.4,332 179.4,331.9 181.7,325.3 184,331.9 190.9,332 
		185.4,336.2 187.4,342.9 	"/>
	
		<linearGradient id="SVGID_1_" gradientUnits="userSpaceOnUse" x1="329.4502" y1="66.5086" x2="587.5502" y2="66.5086" gradientTransform="matrix(-1 0 0 1 865.0502 538.9414)">
		<stop  offset="0" style="stop-color:#D9A143"/>
		<stop  offset="0.125" style="stop-color:#E1B469"/>
		<stop  offset="0.25" style="stop-color:#E8C78E"/>
		<stop  offset="0.375" style="stop-color:#EDD2A5"/>
		<stop  offset="0.5" style="stop-color:#F2DFBF"/>
		<stop  offset="0.625" style="stop-color:#B7D3D7"/>
		<stop  offset="0.75" style="stop-color:#93BEC4"/>
		<stop  offset="0.875" style="stop-color:#6FA8B0"/>
		<stop  offset="1" style="stop-color:#4B929C"/>
	</linearGradient>
	<polygon class="st12" points="277.5,595.5 535.6,595.5 535.6,615.4 277.5,615.4 	"/>
	<line class="st10" x1="535.6" y1="615.4" x2="535.6" y2="595.5"/>
	<line class="st10" x1="506.9" y1="615.4" x2="506.9" y2="595.5"/>
	<line class="st10" x1="478.2" y1="615.4" x2="478.2" y2="595.5"/>
	<line class="st10" x1="449.5" y1="615.4" x2="449.5" y2="595.5"/>
	<line class="st10" x1="420.9" y1="615.4" x2="420.9" y2="595.5"/>
	<line class="st10" x1="392.2" y1="615.4" x2="392.2" y2="595.5"/>
	<line class="st10" x1="363.5" y1="615.4" x2="363.5" y2="595.5"/>
	<line class="st10" x1="334.8" y1="615.4" x2="334.8" y2="595.5"/>
	<line class="st10" x1="306.1" y1="615.4" x2="306.1" y2="595.5"/>
	<line class="st10" x1="277.5" y1="615.4" x2="277.5" y2="595.5"/>
</g>
<g id="Text">
	<g>
		<g>
			<path class="st13" d="M22.1,53.7c0-4.9,3.7-8.3,8.4-8.3c3.6,0,5.7,1.9,6.8,3.9l-2.9,1.4c-0.7-1.3-2.1-2.3-3.9-2.3
				c-2.8,0-4.9,2.2-4.9,5.3c0,3,2.1,5.3,4.9,5.3c1.8,0,3.2-1,3.9-2.3l2.9,1.4c-1.2,2-3.2,3.9-6.8,3.9C25.9,62,22.1,58.7,22.1,53.7z"
				/>
			<path class="st13" d="M38.6,55.9c0-3.3,2.3-6.1,6.1-6.1s6.1,2.8,6.1,6.1S48.5,62,44.7,62C40.9,62,38.6,59.2,38.6,55.9z
				 M47.7,55.9c0-1.8-1.1-3.4-3-3.4s-3,1.6-3,3.4c0,1.8,1.1,3.4,3,3.4S47.7,57.8,47.7,55.9z"/>
			<path class="st13" d="M60.9,54.7c0-1.6-0.8-2.2-2.1-2.2c-1.2,0-2.1,0.7-2.6,1.4v7.8h-3V50.1h3v1.5c0.7-0.9,2.2-1.8,4.1-1.8
				c2.5,0,3.8,1.4,3.8,3.7v8.2h-3v-7H60.9z"/>
			<path class="st13" d="M67.6,58.9v-6h-1.9v-2.7h1.9V47h3.1v3.2H73v2.7h-2.4V58c0,0.7,0.4,1.3,1.1,1.3c0.5,0,0.9-0.2,1.1-0.3
				l0.6,2.3C73,61.7,72.2,62,70.9,62C68.7,62,67.6,60.9,67.6,58.9z"/>
			<path class="st13" d="M75.1,50.1h3v1.6c0.8-1,2.3-1.8,3.7-1.8v3c-0.2,0-0.5-0.1-0.8-0.1c-1,0-2.4,0.6-2.9,1.3v7.7h-3
				C75.1,61.8,75.1,50.1,75.1,50.1z"/>
			<path class="st13" d="M90.7,60.5c-0.8,1-2.2,1.5-3.7,1.5c-1.8,0-4-1.2-4-3.8c0-2.7,2.2-3.7,4-3.7c1.5,0,2.9,0.5,3.7,1.4v-1.6
				c0-1.2-1-1.9-2.5-1.9c-1.2,0-2.4,0.5-3.4,1.4l-1.2-2c1.4-1.2,3.2-1.8,5.1-1.8c2.6,0,5.1,1.1,5.1,4.4v7.5h-3L90.7,60.5L90.7,60.5z
				 M90.7,57.5c-0.5-0.7-1.5-1-2.4-1c-1.2,0-2.2,0.6-2.2,1.8c0,1.1,1,1.7,2.2,1.7c1,0,1.9-0.3,2.4-1V57.5z"/>
			<path class="st13" d="M97.1,58.1c0.8,0.8,2.6,1.6,4,1.6c1.3,0,1.9-0.5,1.9-1.2c0-0.8-1-1.1-2.3-1.4c-2-0.4-4.6-0.9-4.6-3.6
				c0-1.9,1.7-3.6,4.8-3.6c2,0,3.5,0.7,4.7,1.6l-1.2,2.1c-0.7-0.7-2-1.3-3.4-1.3c-1.1,0-1.8,0.4-1.8,1.1c0,0.7,0.9,1,2.2,1.2
				c2,0.4,4.7,0.9,4.7,3.8c0,2.1-1.8,3.7-5,3.7c-2,0-4-0.7-5.2-1.8L97.1,58.1z"/>
			<path class="st13" d="M108.8,58.9v-6h-1.9v-2.7h1.9V47h3.1v3.2h2.4v2.7h-2.4V58c0,0.7,0.4,1.3,1.1,1.3c0.5,0,0.9-0.2,1.1-0.3
				l0.6,2.3c-0.5,0.4-1.3,0.7-2.5,0.7C110,62,108.8,60.9,108.8,58.9z"/>
			<path class="st13" d="M127.9,49.9c2.4,0,3.8,1,4.6,2.1l-2,1.8c-0.6-0.8-1.4-1.2-2.4-1.2c-1.8,0-3.1,1.3-3.1,3.4
				c0,2,1.3,3.4,3.1,3.4c1.1,0,1.9-0.5,2.4-1.2l2,1.8c-0.8,1.1-2.2,2.1-4.6,2.1c-3.6,0-6.1-2.5-6.1-6.1
				C121.7,52.4,124.3,49.9,127.9,49.9z"/>
			<path class="st13" d="M141.4,60.5c-0.8,0.9-2.2,1.5-3.7,1.5c-1.8,0-4-1.2-4-3.8c0-2.7,2.2-3.7,4-3.7c1.5,0,2.9,0.5,3.7,1.4v-1.6
				c0-1.2-1-1.9-2.5-1.9c-1.2,0-2.4,0.5-3.4,1.4l-1.2-2c1.4-1.2,3.2-1.8,5.1-1.8c2.6,0,5.1,1.1,5.1,4.4v7.5h-3v-1.4H141.4z
				 M141.4,57.5c-0.5-0.7-1.5-1-2.4-1c-1.2,0-2.2,0.6-2.2,1.8c0,1.1,1,1.7,2.2,1.7c1,0,1.9-0.3,2.4-1V57.5z"/>
			<path class="st13" d="M155.3,54.7c0-1.6-0.8-2.2-2.1-2.2c-1.2,0-2.1,0.7-2.6,1.4v7.8h-3V50.1h3v1.5c0.7-0.9,2.2-1.8,4.1-1.8
				c2.5,0,3.8,1.4,3.8,3.7v8.2h-3v-7H155.3z"/>
			<path class="st13" d="M172.9,49.9c2.4,0,3.8,1,4.6,2.1l-2,1.8c-0.6-0.8-1.4-1.2-2.4-1.2c-1.8,0-3.1,1.3-3.1,3.4
				c0,2,1.3,3.4,3.1,3.4c1.1,0,1.9-0.5,2.4-1.2l2,1.8c-0.8,1.1-2.2,2.1-4.6,2.1c-3.6,0-6.1-2.5-6.1-6.1
				C166.8,52.4,169.4,49.9,172.9,49.9z"/>
			<path class="st13" d="M179.5,50.1h3v1.6c0.8-1,2.3-1.8,3.7-1.8v3c-0.2,0-0.5-0.1-0.8-0.1c-1,0-2.4,0.6-2.9,1.3v7.7h-3V50.1z"/>
			<path class="st13" d="M193.4,49.9c3.5,0,5.8,2.6,5.8,6.4V57h-8.6c0.2,1.5,1.4,2.7,3.3,2.7c1.1,0,2.4-0.4,3.1-1.2l1.3,2
				c-1.2,1.1-3,1.6-4.8,1.6c-3.5,0-6.2-2.4-6.2-6.1C187.4,52.6,189.9,49.9,193.4,49.9z M190.5,54.8h5.7c-0.1-1.1-0.8-2.6-2.9-2.6
				C191.5,52.3,190.7,53.7,190.5,54.8z"/>
			<path class="st13" d="M208.4,60.5c-0.8,0.9-2.2,1.5-3.7,1.5c-1.8,0-4-1.2-4-3.8c0-2.7,2.2-3.7,4-3.7c1.5,0,2.9,0.5,3.7,1.4v-1.6
				c0-1.2-1-1.9-2.5-1.9c-1.2,0-2.4,0.5-3.4,1.4l-1.2-2c1.4-1.2,3.2-1.8,5.1-1.8c2.6,0,5.1,1.1,5.1,4.4v7.5h-3v-1.4H208.4z
				 M208.4,57.5c-0.5-0.7-1.5-1-2.4-1c-1.2,0-2.2,0.6-2.2,1.8c0,1.1,1,1.7,2.2,1.7c1,0,1.9-0.3,2.4-1V57.5z"/>
			<path class="st13" d="M215,58.9v-6h-1.9v-2.7h1.9V47h3.1v3.2h2.4v2.7h-2.4V58c0,0.7,0.4,1.3,1.1,1.3c0.5,0,0.9-0.2,1.1-0.3
				l0.6,2.3c-0.5,0.4-1.3,0.7-2.5,0.7C216.2,62,215,60.9,215,58.9z"/>
			<path class="st13" d="M227.8,49.9c3.5,0,5.8,2.6,5.8,6.4V57H225c0.2,1.5,1.4,2.7,3.3,2.7c1.1,0,2.4-0.4,3.1-1.2l1.3,2
				c-1.2,1.1-3,1.6-4.8,1.6c-3.5,0-6.2-2.4-6.2-6.1C221.8,52.6,224.3,49.9,227.8,49.9z M225,54.8h5.7c-0.1-1.1-0.8-2.6-2.9-2.6
				C225.9,52.3,225.1,53.7,225,54.8z"/>
			<path class="st13" d="M241.7,46.8c0-1,0.8-1.8,1.8-1.8s1.8,0.8,1.8,1.8s-0.8,1.8-1.8,1.8C242.5,48.7,241.7,47.8,241.7,46.8z
				 M242,50.1h3v11.6h-3V50.1z"/>
			<path class="st13" d="M248,45.7h3v16h-3V45.7z"/>
			<path class="st13" d="M254.1,45.7h3v16h-3V45.7z"/>
			<path class="st13" d="M268,60.3c-0.8,0.9-2.2,1.8-4.1,1.8c-2.5,0-3.7-1.4-3.7-3.6v-8.2h3v7c0,1.6,0.8,2.1,2.1,2.1
				c1.2,0,2.1-0.6,2.6-1.3v-7.8h3v11.6h-3v-1.6H268z"/>
			<path class="st13" d="M274.4,58.1c0.8,0.8,2.6,1.6,4,1.6c1.3,0,1.9-0.5,1.9-1.2c0-0.8-1-1.1-2.3-1.4c-2-0.4-4.6-0.9-4.6-3.6
				c0-1.9,1.7-3.6,4.8-3.6c2,0,3.5,0.7,4.7,1.6l-1.2,2.1c-0.7-0.7-2-1.3-3.4-1.3c-1.1,0-1.8,0.4-1.8,1.1c0,0.7,0.9,1,2.2,1.2
				c2,0.4,4.7,0.9,4.7,3.8c0,2.1-1.8,3.7-5,3.7c-2,0-4-0.7-5.2-1.8L274.4,58.1z"/>
			<path class="st13" d="M285.2,46.8c0-1,0.8-1.8,1.8-1.8s1.8,0.8,1.8,1.8s-0.8,1.8-1.8,1.8C286.1,48.7,285.2,47.8,285.2,46.8z
				 M285.5,50.1h3v11.6h-3V50.1z"/>
			<path class="st13" d="M290.9,55.9c0-3.3,2.3-6.1,6.1-6.1c3.8,0,6.1,2.8,6.1,6.1S300.8,62,297,62C293.2,62,290.9,59.2,290.9,55.9z
				 M300,55.9c0-1.8-1.1-3.4-3-3.4s-3,1.6-3,3.4c0,1.8,1.1,3.4,3,3.4S300,57.8,300,55.9z"/>
			<path class="st13" d="M313.2,54.7c0-1.6-0.8-2.2-2.1-2.2c-1.2,0-2.1,0.7-2.6,1.4v7.8h-3V50.1h3v1.5c0.7-0.9,2.2-1.8,4.1-1.8
				c2.5,0,3.8,1.4,3.8,3.7v8.2h-3v-7H313.2z"/>
			<path class="st13" d="M319.6,58.1c0.8,0.8,2.6,1.6,4,1.6c1.3,0,1.9-0.5,1.9-1.2c0-0.8-1-1.1-2.3-1.4c-2-0.4-4.6-0.9-4.6-3.6
				c0-1.9,1.7-3.6,4.8-3.6c2,0,3.5,0.7,4.7,1.6l-1.2,2.1c-0.7-0.7-2-1.3-3.4-1.3c-1.1,0-1.8,0.4-1.8,1.1c0,0.7,0.9,1,2.2,1.2
				c2,0.4,4.7,0.9,4.7,3.8c0,2.1-1.8,3.7-5,3.7c-2,0-4-0.7-5.2-1.8L319.6,58.1z"/>
		</g>
	</g>
	<text transform="matrix(1 0 0 1 349.1703 223.6516)" class="st14 st15 st16">More DNA</text>
	<g>
		<g>
			<path class="st13" d="M618.1,656c0.5,0.6,1.2,0.9,2,0.9c0.9,0,1.5-0.6,1.5-1.3c0-0.8-0.6-1.3-1.5-1.3c-0.6,0-1.1,0.2-1.6,0.6
				l-0.9-0.3v-4.1h4.8v1.1h-3.5v2.1c0.4-0.4,1-0.6,1.7-0.6c1.2,0,2.3,0.9,2.3,2.4s-1.2,2.5-2.8,2.5c-1.3,0-2.1-0.4-2.7-1.1
				L618.1,656z"/>
			<path class="st13" d="M628.1,652.4l-1.4,5.4h-1.4l-2.1-7.3h1.4l1.4,5.7l1.5-5.7h1l1.5,5.7l1.4-5.7h1.4l-2.1,7.3h-1.4L628.1,652.4
				z"/>
			<path class="st13" d="M636.2,650.5h1.3v7.3h-1.3V650.5z"/>
			<path class="st13" d="M640.1,652.5v5.3h-1.3v-7.3h1.3l3.8,5.2v-5.2h1.3v7.3H644L640.1,652.5z"/>
			<path class="st13" d="M646.5,650.5h5v1.1h-3.7v1.9h3.7v1.1h-3.7v3.2h-1.3V650.5z"/>
			<path class="st13" d="M655.9,650.4c2.2,0,3.8,1.6,3.8,3.8s-1.6,3.8-3.8,3.8s-3.8-1.6-3.8-3.8S653.7,650.4,655.9,650.4z
				 M655.9,651.5c-1.5,0-2.4,1.1-2.4,2.7c0,1.5,0.9,2.7,2.4,2.7s2.4-1.1,2.4-2.7C658.3,652.7,657.3,651.5,655.9,651.5z"/>
			<path class="st13" d="M664.2,650.4c1.4,0,2.4,0.7,3,1.5l-1.1,0.6c-0.4-0.5-1.1-1-1.9-1c-1.5,0-2.5,1.1-2.5,2.7s1.1,2.7,2.5,2.7
				c0.7,0,1.4-0.4,1.7-0.7V655h-2.2v-1.1h3.5v2.8c-0.7,0.8-1.8,1.3-3,1.3c-2.1,0-3.9-1.5-3.9-3.8S662,650.4,664.2,650.4z"/>
			<path class="st13" d="M670.8,655.1h-1.3v2.7h-1.3v-7.3h3.2c1.5,0,2.4,0.9,2.4,2.3c0,1.3-0.9,2-1.7,2.2l1.8,2.9h-1.5L670.8,655.1z
				 M671.3,651.6h-1.8v2.3h1.8c0.7,0,1.3-0.5,1.3-1.2S672.1,651.6,671.3,651.6z"/>
			<path class="st13" d="M679.6,656.4h-3.5l-0.5,1.4h-1.4l2.9-7.3h1.6l2.9,7.3h-1.4L679.6,656.4z M676.5,655.3h2.8l-1.4-3.7
				L676.5,655.3z"/>
			<path class="st13" d="M682.1,650.5h3.2c1.5,0,2.4,1.1,2.4,2.3s-0.9,2.3-2.4,2.3h-1.9v2.7h-1.3V650.5z M685.2,651.6h-1.8v2.3h1.8
				c0.7,0,1.3-0.5,1.3-1.2S685.9,651.6,685.2,651.6z"/>
			<path class="st13" d="M693.7,654.7h-3.8v3.2h-1.3v-7.3h1.3v3h3.8v-3h1.3v7.3h-1.3V654.7z"/>
			<path class="st13" d="M696.3,650.5h1.3v7.3h-1.3V650.5z"/>
			<path class="st13" d="M698.6,654.2c0-2.3,1.7-3.8,3.8-3.8c1.5,0,2.5,0.8,3,1.7l-1.1,0.6c-0.4-0.6-1.1-1.1-1.9-1.1
				c-1.4,0-2.5,1.1-2.5,2.7s1.1,2.7,2.5,2.7c0.8,0,1.6-0.5,1.9-1.1l1.1,0.6c-0.6,0.9-1.5,1.6-3,1.6
				C700.3,658,698.6,656.4,698.6,654.2z"/>
			<path class="st13" d="M710.6,650.3h0.9l-2.6,7.8H708L710.6,650.3z"/>
			<path class="st13" d="M716.6,654.8l-0.6,0.7v2.3h-1.3v-7.3h1.3v3.5l2.9-3.5h1.6l-3,3.5l3.2,3.9H719L716.6,654.8z"/>
			<path class="st13" d="M722.5,652.5v5.3h-1.3v-7.3h1.3l3.8,5.2v-5.2h1.3v7.3h-1.2L722.5,652.5z"/>
			<path class="st13" d="M732.3,650.4c2.2,0,3.8,1.6,3.8,3.8s-1.6,3.8-3.8,3.8s-3.8-1.6-3.8-3.8S730.1,650.4,732.3,650.4z
				 M732.3,651.5c-1.5,0-2.4,1.1-2.4,2.7c0,1.5,0.9,2.7,2.4,2.7s2.4-1.1,2.4-2.7C734.8,652.7,733.8,651.5,732.3,651.5z"/>
			<path class="st13" d="M741.3,652.4l-1.4,5.4h-1.4l-2.1-7.3h1.4l1.4,5.7l1.5-5.7h1l1.5,5.7l1.4-5.7h1.4l-2.1,7.3h-1.4L741.3,652.4
				z"/>
			<path class="st13" d="M751.5,656.4H748l-0.5,1.4H746l2.9-7.3h1.6l2.9,7.3H752L751.5,656.4z M748.3,655.3h2.8l-1.4-3.7
				L748.3,655.3z"/>
			<path class="st13" d="M754,650.5h3.6c1.3,0,2.1,0.8,2.1,1.9c0,0.9-0.6,1.5-1.3,1.7c0.8,0.1,1.4,0.9,1.4,1.8c0,1.1-0.8,2-2.1,2
				H754V650.5z M757.3,653.6c0.7,0,1-0.4,1-0.9c0-0.6-0.4-1-1-1h-2.1v1.9H757.3z M757.4,656.7c0.7,0,1.1-0.4,1.1-1s-0.4-1-1.1-1
				h-2.1v2H757.4z"/>
			<path class="st13" d="M760.9,650.5h1.3v6.2h3.2v1.1h-4.5V650.5z"/>
			<path class="st13" d="M766.3,650.5h5v1.1h-3.7v1.9h3.7v1.1h-3.7v2h3.7v1.1h-5V650.5z"/>
		</g>
	</g>
	<g>
		<g>
			<path class="st13" d="M22.9,655.8c0.5,0.5,1.3,1,2.3,1c1.1,0,1.5-0.5,1.5-1c0-0.7-0.8-0.9-1.7-1.1c-1.2-0.3-2.6-0.6-2.6-2.2
				c0-1.2,1.1-2.1,2.7-2.1c1.1,0,2.1,0.4,2.8,1l-0.7,1c-0.6-0.6-1.4-0.8-2.1-0.8c-0.8,0-1.2,0.4-1.2,0.9c0,0.6,0.7,0.8,1.6,1
				c1.2,0.3,2.7,0.7,2.7,2.3c0,1.2-0.9,2.3-2.8,2.3c-1.4,0-2.3-0.5-3-1.2L22.9,655.8z"/>
			<path class="st13" d="M32.4,650.4c2.2,0,3.8,1.6,3.8,3.8s-1.6,3.8-3.8,3.8s-3.8-1.6-3.8-3.8S30.2,650.4,32.4,650.4z M32.4,651.5
				c-1.5,0-2.4,1.1-2.4,2.7c0,1.5,0.9,2.7,2.4,2.7s2.4-1.1,2.4-2.7C34.8,652.7,33.9,651.5,32.4,651.5z"/>
			<path class="st13" d="M37.2,650.5h1.3v4.4c0,1.2,0.6,1.9,1.9,1.9c1.2,0,1.9-0.8,1.9-1.9v-4.4h1.3v4.4c0,1.8-1,3-3.2,3
				c-2.1,0-3.2-1.2-3.2-3V650.5z"/>
			<path class="st13" d="M47.4,655.1h-1.3v2.7h-1.3v-7.3H48c1.5,0,2.4,0.9,2.4,2.3c0,1.3-0.9,2-1.7,2.2l1.8,2.9H49L47.4,655.1z
				 M47.9,651.6h-1.8v2.3h1.8c0.7,0,1.3-0.5,1.3-1.2S48.6,651.6,47.9,651.6z"/>
			<path class="st13" d="M51.2,654.2c0-2.3,1.7-3.8,3.8-3.8c1.5,0,2.5,0.8,3,1.7l-1.1,0.6c-0.4-0.6-1.1-1.1-1.9-1.1
				c-1.4,0-2.5,1.1-2.5,2.7s1.1,2.7,2.5,2.7c0.8,0,1.6-0.5,1.9-1.1l1.1,0.6c-0.6,0.9-1.5,1.6-3,1.6C52.9,658,51.2,656.4,51.2,654.2z
				"/>
			<path class="st13" d="M58.8,650.5h5v1.1h-3.7v1.9h3.7v1.1h-3.7v2h3.7v1.1h-5V650.5z"/>
			<path class="st13" d="M65.5,652.5c0.4,0,0.8,0.4,0.8,0.8s-0.4,0.8-0.8,0.8s-0.8-0.4-0.8-0.8S65,652.5,65.5,652.5z M65.5,656.4
				c0.4,0,0.8,0.4,0.8,0.8c0,0.4-0.4,0.8-0.8,0.8s-0.8-0.4-0.8-0.8C64.7,656.8,65,656.4,65.5,656.4z"/>
			<path class="st13" d="M75.1,654.7h-3.8v3.2H70v-7.3h1.3v3h3.8v-3h1.3v7.3h-1.3C75.1,657.9,75.1,654.7,75.1,654.7z"/>
			<path class="st13" d="M78.2,656.4c0.4,0,0.8,0.4,0.8,0.8c0,0.4-0.4,0.8-0.8,0.8s-0.8-0.4-0.8-0.8
				C77.5,656.8,77.8,656.4,78.2,656.4z"/>
			<path class="st13" d="M80.1,650.5h5v1.1h-3.7v1.9h3.7v1.1h-3.7v2h3.7v1.1h-5V650.5z"/>
			<path class="st13" d="M86.8,656.4c0.4,0,0.8,0.4,0.8,0.8c0,0.4-0.4,0.8-0.8,0.8s-0.8-0.4-0.8-0.8
				C86.1,656.8,86.4,656.4,86.8,656.4z"/>
			<path class="st13" d="M94.8,650.4c1.4,0,2.4,0.7,3,1.5l-1.1,0.6c-0.4-0.5-1.1-1-1.9-1c-1.5,0-2.5,1.1-2.5,2.7s1.1,2.7,2.5,2.7
				c0.7,0,1.4-0.4,1.7-0.7V655h-2.2v-1.1h3.5v2.8c-0.7,0.8-1.7,1.3-3,1.3c-2.1,0-3.9-1.5-3.9-3.8S92.7,650.4,94.8,650.4z"/>
			<path class="st13" d="M101.5,655.1h-1.3v2.7H99v-7.3h3.2c1.5,0,2.4,0.9,2.4,2.3c0,1.3-0.9,2-1.7,2.2l1.8,2.9h-1.5L101.5,655.1z
				 M102,651.6h-1.8v2.3h1.8c0.7,0,1.3-0.5,1.3-1.2S102.8,651.6,102,651.6z"/>
			<path class="st13" d="M105.7,650.5h5v1.1H107v1.9h3.7v1.1H107v2h3.7v1.1h-5V650.5z"/>
			<path class="st13" d="M111.4,654.2c0-2.3,1.7-3.8,3.8-3.8c1.5,0,2.5,0.8,3,1.7l-1.1,0.6c-0.4-0.6-1.1-1.1-1.9-1.1
				c-1.4,0-2.5,1.1-2.5,2.7s1.1,2.7,2.5,2.7c0.8,0,1.6-0.5,1.9-1.1l1.1,0.6c-0.6,0.9-1.5,1.6-3,1.6
				C113.1,658,111.4,656.4,111.4,654.2z"/>
			<path class="st13" d="M118.7,654.2c0-2.3,1.7-3.8,3.8-3.8c1.5,0,2.5,0.8,3,1.7l-1.1,0.6c-0.4-0.6-1.1-1.1-1.9-1.1
				c-1.4,0-2.5,1.1-2.5,2.7s1.1,2.7,2.5,2.7c0.8,0,1.6-0.5,1.9-1.1l1.1,0.6c-0.6,0.9-1.5,1.6-3,1.6
				C120.4,658,118.7,656.4,118.7,654.2z"/>
			<path class="st13" d="M129.7,650.4c2.2,0,3.8,1.6,3.8,3.8s-1.6,3.8-3.8,3.8s-3.8-1.6-3.8-3.8S127.5,650.4,129.7,650.4z
				 M129.7,651.5c-1.5,0-2.4,1.1-2.4,2.7c0,1.5,0.9,2.7,2.4,2.7s2.4-1.1,2.4-2.7C132.2,652.7,131.2,651.5,129.7,651.5z"/>
			<path class="st13" d="M138.1,650.5h5l-0.3,1.1h-3.7l-0.4,1.9h3.7l-0.3,1.1h-3.7l-0.5,2h3.7l-0.2,1.1h-5L138.1,650.5z"/>
			<path class="st13" d="M145.7,651.6h-2.2l0.3-1.1h5.7l-0.3,1.1H147l-1.4,6.2h-1.3L145.7,651.6z"/>
			<path class="st13" d="M156.4,656.4h-3.5l-0.8,1.4h-1.5l4.5-7.3h1.6l1.3,7.3h-1.3L156.4,656.4z M153.5,655.3h2.8l-0.6-3.7
				L153.5,655.3z"/>
			<path class="st13" d="M160.1,650.5h1.3l-1.4,6.2h3.2l-0.2,1.1h-4.5L160.1,650.5z"/>
			<path class="st13" d="M170,650.3h0.9l-4.3,7.8h-0.9L170,650.3z"/>
			<path class="st13" d="M174.9,652.2l-1.2,5.7h-1.3l1.6-7.3h1.3l2.5,5.5l1.2-5.5h1.3l-1.6,7.3h-1.2L174.9,652.2z"/>
			<path class="st13" d="M185.1,656.4h-3.5l-0.8,1.4h-1.5l4.5-7.3h1.6l1.3,7.3h-1.3L185.1,656.4z M182.2,655.3h2.8l-0.6-3.7
				L182.2,655.3z"/>
			<path class="st13" d="M190.4,651.6h-2.2l0.3-1.1h5.7l-0.3,1.1h-2.2l-1.4,6.2H189L190.4,651.6z"/>
			<path class="st13" d="M194,655.5c0-0.2,0-0.5,0.1-0.7l0.9-4.2h1.3l-0.9,4.2c-0.1,0.3-0.1,0.5-0.1,0.7c0,0.9,0.6,1.5,1.7,1.5
				c1.3,0,1.8-0.8,2.1-1.9l1-4.4h1.3l-1,4.4c-0.4,1.8-1.3,3-3.5,3C195,658,194,657,194,655.5z"/>
			<path class="st13" d="M204.3,655.1h-1.4l-0.6,2.7H201l1.6-7.3h2.9c1.1,0,2.2,0.8,2.2,2c0,1.3-0.9,2.3-2.2,2.5l1.1,2.8h-1.4
				L204.3,655.1z M206.4,652.6c0-0.6-0.5-1-1.1-1h-1.7l-0.5,2.3h1.8C205.9,654,206.4,653.4,206.4,652.6z"/>
			<path class="st13" d="M209.3,650.5h5l-0.3,1.1h-3.7l-0.4,1.9h3.7l-0.3,1.1h-3.7l-0.5,2h3.7l-0.2,1.1h-5L209.3,650.5z"/>
			<path class="st13" d="M224,652.1l-3.5,5.8H220l-1-5.8l-1.3,5.8h-1.3l1.6-7.3h1.8l0.9,5.2l3.1-5.2h1.9l-1.6,7.3h-1.3L224,652.1z"
				/>
			<path class="st13" d="M227,650.5h5l-0.3,1.1H228l-0.4,1.9h3.7l-0.3,1.1h-3.7l-0.5,2h3.7l-0.2,1.1h-5L227,650.5z"/>
			<path class="st13" d="M234.6,651.6h-2.2l0.3-1.1h5.7l-0.3,1.1h-2.2l-1.4,6.2h-1.3L234.6,651.6z"/>
			<path class="st13" d="M243.4,654.7h-3.8l-0.7,3.2h-1.3l1.6-7.3h1.3l-0.7,3h3.8l0.7-3h1.3l-1.6,7.3h-1.3L243.4,654.7z"/>
			<path class="st13" d="M249.9,650.4c2,0,3.5,1.2,3.5,3.2c0,2.4-1.8,4.3-4.2,4.3c-2,0-3.5-1.2-3.5-3.3
				C245.7,652.3,247.5,650.4,249.9,650.4z M249.8,651.5c-1.5,0-2.8,1.3-2.8,3.1c0,1.4,1,2.2,2.2,2.2c1.5,0,2.8-1.3,2.8-3.1
				C252.1,652.4,251.1,651.5,249.8,651.5z"/>
			<path class="st13" d="M255.1,650.5h2.7c1.6,0,3.1,1.3,3.1,3.1c0,2-1.4,4.2-4.7,4.2h-2.7L255.1,650.5z M259.6,653.7
				c0-1.2-0.8-2.1-2-2.1h-1.4l-1.1,5.1h1.4C258.4,656.7,259.6,655.3,259.6,653.7z"/>
			<path class="st13" d="M261.8,655.7c0.5,0.7,1.4,1.1,2.5,1.1c0.9,0,1.3-0.6,1.3-1.1s-0.7-0.8-1.4-1.1c-1-0.4-2.2-0.8-2.2-2
				s1.1-2.3,2.8-2.3c1.2,0,2.2,0.4,2.8,1.2l-0.8,0.9c-0.5-0.6-1.4-1-2.2-1c-0.7,0-1.2,0.4-1.2,0.9s0.6,0.7,1.4,1
				c1,0.4,2.2,0.9,2.2,2.1c0,1.3-1,2.4-2.8,2.4c-1.4,0-2.6-0.6-3.2-1.3L261.8,655.7z"/>
			<path class="st13" d="M270.4,656.8c2.8-2.2,4-3.1,4-4.2c0-0.8-0.7-1.1-1.3-1.1c-0.9,0-1.5,0.4-2,0.9l-0.7-0.8
				c0.6-0.8,1.7-1.2,2.7-1.2c1.4,0,2.7,0.8,2.7,2.3c0,1.4-1.2,2.6-3.2,4h3.3v1.1h-5.3v-1H270.4z"/>
			<path class="st13" d="M279.5,650.4c2.1,0,2.9,1.9,2.9,3.8s-0.9,3.8-2.9,3.8c-2.1,0-2.9-1.9-2.9-3.8S277.5,650.4,279.5,650.4z
				 M279.5,651.5c-1.2,0-1.6,1.2-1.6,2.6c0,1.4,0.4,2.7,1.6,2.7s1.6-1.3,1.6-2.7C281.1,652.8,280.7,651.5,279.5,651.5z"/>
			<path class="st13" d="M284.8,652.2l-1.2,1.2l-0.7-0.8l2.1-2.1h1.1v7.3h-1.3V652.2z"/>
			<path class="st13" d="M290,650.4c2.1,0,2.9,1.9,2.9,3.8S292,658,290,658c-2.1,0-2.9-1.9-2.9-3.8S287.9,650.4,290,650.4z
				 M290,651.5c-1.2,0-1.6,1.2-1.6,2.6c0,1.4,0.4,2.7,1.6,2.7s1.6-1.3,1.6-2.7C291.6,652.8,291.2,651.5,290,651.5z"/>
		</g>
	</g>
	<g>
		<g>
			<path class="st17" d="M107.2,556.3c1.7,0,2.8,0.7,3.6,1.8l-0.9,0.6c-0.6-0.8-1.6-1.3-2.7-1.3c-2,0-3.6,1.6-3.6,3.8
				s1.6,3.8,3.6,3.8c1.1,0,2-0.5,2.5-1v-2h-3.2v-1h4.4v3.4c-0.9,1-2.1,1.6-3.7,1.6c-2.7,0-4.8-1.9-4.8-4.8
				C102.4,558.2,104.6,556.3,107.2,556.3z"/>
			<path class="st17" d="M112.5,556.5h6.1v1h-5v3h4.9v1h-4.9v3.2h5v1h-6.1V556.5z"/>
			<path class="st17" d="M121.3,558.3v7.5h-1.2v-9.3h1.2l5.4,7.4v-7.4h1.2v9.3h-1.1L121.3,558.3z"/>
			<path class="st17" d="M129.8,556.5h6.1v1h-5v3h4.9v1h-4.9v3.2h5v1h-6.1V556.5z"/>
			<path class="st17" d="M146.6,563.7h-4.7l-0.8,2.1h-1.3l3.8-9.3h1.4l3.8,9.3h-1.3L146.6,563.7z M142.2,562.7h4l-2-5.2L142.2,562.7
				z"/>
		</g>
	</g>
	<g>
		<g>
			<path class="st17" d="M163.9,556.3c1.7,0,2.8,0.7,3.6,1.8l-0.9,0.6c-0.6-0.8-1.6-1.3-2.7-1.3c-2,0-3.6,1.6-3.6,3.8
				s1.6,3.8,3.6,3.8c1.1,0,2-0.5,2.5-1v-2h-3.2v-1h4.4v3.4c-0.9,1-2.1,1.6-3.7,1.6c-2.7,0-4.8-1.9-4.8-4.8
				C159.1,558.2,161.3,556.3,163.9,556.3z"/>
			<path class="st17" d="M169.2,556.5h6.1v1h-5v3h4.9v1h-4.9v3.2h5v1h-6.1V556.5z"/>
			<path class="st17" d="M178,558.3v7.5h-1.2v-9.3h1.2l5.4,7.4v-7.4h1.2v9.3h-1.1L178,558.3z"/>
			<path class="st17" d="M186.5,556.5h6.1v1h-5v3h4.9v1h-4.9v3.2h5v1h-6.1V556.5z"/>
			<path class="st17" d="M197.5,556.5h4.2c1.6,0,2.6,1,2.6,2.4c0,1.2-0.8,2-1.6,2.1c1,0.2,1.8,1.2,1.8,2.3c0,1.5-1,2.5-2.7,2.5h-4.3
				V556.5z M201.4,560.5c1.1,0,1.6-0.6,1.6-1.5c0-0.8-0.6-1.5-1.6-1.5h-2.8v3H201.4z M201.5,564.8c1.1,0,1.7-0.6,1.7-1.6
				c0-0.9-0.6-1.6-1.7-1.6h-2.9v3.2L201.5,564.8L201.5,564.8z"/>
		</g>
	</g>
	<g>
		<g>
			<path class="st17" d="M219.3,556.3c1.7,0,2.8,0.7,3.6,1.8l-0.9,0.6c-0.6-0.8-1.6-1.3-2.7-1.3c-2,0-3.6,1.6-3.6,3.8
				s1.6,3.8,3.6,3.8c1.1,0,2-0.5,2.5-1v-2h-3.2v-1h4.4v3.4c-0.9,1-2.1,1.6-3.7,1.6c-2.7,0-4.8-1.9-4.8-4.8
				C214.5,558.2,216.7,556.3,219.3,556.3z"/>
			<path class="st17" d="M224.6,556.5h6.1v1h-5v3h4.9v1h-4.9v3.2h5v1h-6.1V556.5z"/>
			<path class="st17" d="M233.4,558.3v7.5h-1.2v-9.3h1.2l5.4,7.4v-7.4h1.2v9.3h-1.1L233.4,558.3z"/>
			<path class="st17" d="M241.9,556.5h6.1v1h-5v3h4.9v1H243v3.2h5v1h-6.1V556.5z"/>
			<path class="st17" d="M252.5,561.1c0-2.9,2.1-4.8,4.8-4.8c1.7,0,2.8,0.8,3.6,1.8l-1,0.5c-0.5-0.8-1.5-1.4-2.6-1.4
				c-2,0-3.6,1.6-3.6,3.8s1.6,3.8,3.6,3.8c1.1,0,2.1-0.6,2.6-1.4l1,0.5c-0.8,1.1-1.9,1.8-3.6,1.8C254.6,566,252.5,564,252.5,561.1z"
				/>
		</g>
	</g>
	<g>
		<g>
			<path class="st17" d="M276.1,556.3c1.7,0,2.8,0.7,3.6,1.8l-0.9,0.6c-0.6-0.8-1.6-1.3-2.7-1.3c-2,0-3.6,1.6-3.6,3.8
				s1.6,3.8,3.6,3.8c1.1,0,2-0.5,2.5-1v-2h-3.2v-1h4.4v3.4c-0.9,1-2.1,1.6-3.7,1.6c-2.7,0-4.8-1.9-4.8-4.8
				C271.3,558.2,273.4,556.3,276.1,556.3z"/>
			<path class="st17" d="M281.3,556.5h6.1v1h-5v3h4.9v1h-4.9v3.2h5v1h-6.1V556.5z"/>
			<path class="st17" d="M290.2,558.3v7.5H289v-9.3h1.2l5.4,7.4v-7.4h1.2v9.3h-1.1L290.2,558.3z"/>
			<path class="st17" d="M298.6,556.5h6.1v1h-5v3h4.9v1h-4.9v3.2h5v1h-6.1V556.5z"/>
			<path class="st17" d="M309.6,556.5h3.2c2.9,0,4.8,2,4.8,4.7s-1.9,4.7-4.8,4.7h-3.2V556.5z M312.8,564.8c2.3,0,3.6-1.6,3.6-3.6
				s-1.3-3.6-3.6-3.6h-2v7.3h2V564.8z"/>
		</g>
	</g>
	<g>
		<g>
			<path class="st17" d="M332.4,556.3c1.7,0,2.8,0.7,3.6,1.8l-0.9,0.6c-0.6-0.8-1.6-1.3-2.7-1.3c-2,0-3.6,1.6-3.6,3.8
				s1.6,3.8,3.6,3.8c1.1,0,2-0.5,2.5-1v-2h-3.2v-1h4.4v3.4c-0.9,1-2.1,1.6-3.7,1.6c-2.7,0-4.8-1.9-4.8-4.8
				C327.6,558.2,329.7,556.3,332.4,556.3z"/>
			<path class="st17" d="M337.6,556.5h6.1v1h-5v3h4.9v1h-4.9v3.2h5v1h-6.1V556.5z"/>
			<path class="st17" d="M346.5,558.3v7.5h-1.2v-9.3h1.2l5.4,7.4v-7.4h1.2v9.3H352L346.5,558.3z"/>
			<path class="st17" d="M354.9,556.5h6.1v1h-5v3h4.9v1H356v3.2h5v1h-6.1V556.5z"/>
			<path class="st17" d="M365.9,556.5h6.1v1h-5v3h4.9v1H367v3.2h5v1h-6.1V556.5z"/>
		</g>
	</g>
	<g>
		<g>
			<path class="st17" d="M392.2,623.3c2.5,0,3.6,2.5,3.6,4.8s-1,4.8-3.6,4.8s-3.6-2.6-3.6-4.8C388.7,625.8,389.7,623.3,392.2,623.3z
				 M392.2,624.3c-1.8,0-2.4,1.9-2.4,3.8c0,1.9,0.6,3.8,2.4,3.8s2.4-1.9,2.4-3.8S394,624.3,392.2,624.3z"/>
		</g>
	</g>
	<g>
		<g>
			<path class="st17" d="M355.5,628.9h3.4v0.9h-3.4V628.9z"/>
			<path class="st17" d="M361.5,624.9l-1.5,1.6l-0.7-0.7l2.3-2.4h1v9.3h-1.2v-7.8H361.5z"/>
			<path class="st17" d="M367.8,623.3c2.5,0,3.6,2.5,3.6,4.8s-1,4.8-3.6,4.8s-3.6-2.6-3.6-4.8C364.2,625.8,365.2,623.3,367.8,623.3z
				 M367.8,624.3c-1.8,0-2.4,1.9-2.4,3.8c0,1.9,0.6,3.8,2.4,3.8s2.4-1.9,2.4-3.8C370.1,626.2,369.5,624.3,367.8,624.3z"/>
		</g>
	</g>
	<g>
		<g>
			<path class="st17" d="M325.5,628.9h3.4v0.9h-3.4V628.9z"/>
			<path class="st17" d="M329.8,631.8c3.4-2.6,5.2-4.2,5.2-5.8c0-1.2-1-1.7-1.9-1.7c-1.1,0-2,0.5-2.5,1.2l-0.7-0.7
				c0.7-0.9,1.9-1.5,3.2-1.5c1.6,0,3.1,0.9,3.1,2.7c0,1.9-1.9,3.6-4.5,5.7h4.6v1h-6.4v-0.9H329.8z"/>
			<path class="st17" d="M341.3,623.3c2.5,0,3.6,2.5,3.6,4.8s-1,4.8-3.6,4.8s-3.6-2.6-3.6-4.8C337.7,625.8,338.7,623.3,341.3,623.3z
				 M341.3,624.3c-1.8,0-2.4,1.9-2.4,3.8c0,1.9,0.6,3.8,2.4,3.8s2.4-1.9,2.4-3.8C343.6,626.2,343,624.3,341.3,624.3z"/>
		</g>
	</g>
	<g>
		<g>
			<path class="st17" d="M416.6,624.9l-1.5,1.6l-0.7-0.7l2.3-2.4h1v9.3h-1.2v-7.8H416.6z"/>
			<path class="st17" d="M422.9,623.3c2.5,0,3.6,2.5,3.6,4.8s-1,4.8-3.6,4.8s-3.6-2.6-3.6-4.8C419.3,625.8,420.3,623.3,422.9,623.3z
				 M422.9,624.3c-1.8,0-2.4,1.9-2.4,3.8c0,1.9,0.6,3.8,2.4,3.8s2.4-1.9,2.4-3.8C425.2,626.2,424.6,624.3,422.9,624.3z"/>
		</g>
	</g>
	<g>
		<g>
			<path class="st17" d="M441.9,631.8c3.4-2.6,5.2-4.2,5.2-5.8c0-1.2-1-1.7-1.9-1.7c-1.1,0-2,0.5-2.5,1.2l-0.7-0.7
				c0.7-0.9,1.9-1.5,3.2-1.5c1.6,0,3.1,0.9,3.1,2.7c0,1.9-1.9,3.6-4.5,5.7h4.6v1H442v-0.9H441.9z"/>
			<path class="st17" d="M453.3,623.3c2.5,0,3.6,2.5,3.6,4.8s-1,4.8-3.6,4.8s-3.6-2.6-3.6-4.8C449.8,625.8,450.8,623.3,453.3,623.3z
				 M453.3,624.3c-1.8,0-2.4,1.9-2.4,3.8c0,1.9,0.6,3.8,2.4,3.8s2.4-1.9,2.4-3.8C455.7,626.2,455.1,624.3,453.3,624.3z"/>
		</g>
	</g>
	<g>
		<g>
			<path class="st17" d="M472.2,630.6c0.5,0.7,1.5,1.2,2.6,1.2c1.4,0,2.2-0.7,2.2-1.8c0-1.2-1-1.7-2.3-1.7c-0.4,0-0.8,0-1,0v-1.1
				c0.2,0,0.6,0,1,0c1.2,0,2.2-0.5,2.2-1.5s-1-1.6-2.1-1.6c-1,0-1.8,0.4-2.5,1.1l-0.6-0.7c0.7-0.8,1.8-1.4,3.2-1.4
				c1.8,0,3.2,0.9,3.2,2.5c0,1.3-1.1,2-2,2.2c0.9,0.1,2.2,0.8,2.2,2.3c0,1.6-1.2,2.7-3.3,2.7c-1.6,0-2.7-0.7-3.3-1.5L472.2,630.6z"
				/>
			<path class="st17" d="M482.9,623.3c2.6,0,3.6,2.5,3.6,4.8s-1,4.8-3.6,4.8s-3.6-2.6-3.6-4.8C479.3,625.8,480.3,623.3,482.9,623.3z
				 M482.9,624.3c-1.8,0-2.4,1.9-2.4,3.8c0,1.9,0.6,3.8,2.4,3.8s2.4-1.9,2.4-3.8S484.7,624.3,482.9,624.3z"/>
		</g>
	</g>
	<g>
		<g>
			<path class="st17" d="M504,630.4h-4.4v-1l4-6h1.6v6h1.3v1h-1.3v2.4H504V630.4z M500.7,629.4h3.3v-4.9L500.7,629.4z"/>
			<path class="st17" d="M510.9,623.3c2.6,0,3.6,2.5,3.6,4.8s-1,4.8-3.6,4.8s-3.6-2.6-3.6-4.8C507.4,625.8,508.4,623.3,510.9,623.3z
				 M510.9,624.3c-1.8,0-2.4,1.9-2.4,3.8c0,1.9,0.6,3.8,2.4,3.8c1.8,0,2.4-1.9,2.4-3.8S512.7,624.3,510.9,624.3z"/>
		</g>
	</g>
	<g>
		<g>
			<path class="st17" d="M529.8,630.6c0.6,0.8,1.4,1.2,2.6,1.2c1.3,0,2.2-0.9,2.2-2c0-1.2-0.9-2-2.1-2c-0.8,0-1.5,0.3-2.2,0.9
				l-0.9-0.3v-5h5.7v1h-4.6v3.2c0.4-0.4,1.2-0.8,2.2-0.8c1.6,0,3,1.1,3,3s-1.4,3.1-3.3,3.1c-1.6,0-2.6-0.6-3.3-1.5L529.8,630.6z"/>
			<path class="st17" d="M540.4,623.3c2.5,0,3.6,2.5,3.6,4.8s-1,4.8-3.6,4.8s-3.6-2.6-3.6-4.8C536.8,625.8,537.8,623.3,540.4,623.3z
				 M540.4,624.3c-1.8,0-2.4,1.9-2.4,3.8c0,1.9,0.6,3.8,2.4,3.8s2.4-1.9,2.4-3.8C542.8,626.2,542.2,624.3,540.4,624.3z"/>
		</g>
	</g>
	<g>
		<g>
			<path class="st17" d="M295.5,628.9h3.4v0.9h-3.4V628.9z"/>
			<path class="st17" d="M300.1,630.6c0.5,0.7,1.5,1.2,2.6,1.2c1.4,0,2.2-0.7,2.2-1.8c0-1.2-1-1.7-2.3-1.7c-0.4,0-0.8,0-1,0v-1.1
				c0.2,0,0.6,0,1,0c1.2,0,2.2-0.5,2.2-1.5s-1-1.6-2.1-1.6c-1,0-1.8,0.4-2.5,1.1l-0.6-0.7c0.7-0.8,1.8-1.4,3.2-1.4
				c1.8,0,3.2,0.9,3.2,2.5c0,1.3-1.1,2-2,2.2c0.9,0.1,2.2,0.8,2.2,2.3c0,1.6-1.2,2.7-3.3,2.7c-1.6,0-2.7-0.7-3.3-1.5L300.1,630.6z"
				/>
			<path class="st17" d="M310.8,623.3c2.5,0,3.6,2.5,3.6,4.8s-1,4.8-3.6,4.8s-3.6-2.6-3.6-4.8C307.2,625.8,308.3,623.3,310.8,623.3z
				 M310.8,624.3c-1.8,0-2.4,1.9-2.4,3.8c0,1.9,0.6,3.8,2.4,3.8s2.4-1.9,2.4-3.8C313.2,626.2,312.6,624.3,310.8,624.3z"/>
		</g>
	</g>
	<g>
		<g>
			<path class="st17" d="M267.5,628.9h3.4v0.9h-3.4V628.9z"/>
			<path class="st17" d="M275.9,630.4h-4.4v-1l4-6h1.6v6h1.3v1h-1.3v2.4h-1.2V630.4z M272.6,629.4h3.3v-4.9L272.6,629.4z"/>
			<path class="st17" d="M282.8,623.3c2.5,0,3.6,2.5,3.6,4.8s-1,4.8-3.6,4.8s-3.6-2.6-3.6-4.8C279.3,625.8,280.3,623.3,282.8,623.3z
				 M282.8,624.3c-1.8,0-2.4,1.9-2.4,3.8c0,1.9,0.6,3.8,2.4,3.8s2.4-1.9,2.4-3.8C285.2,626.2,284.6,624.3,282.8,624.3z"/>
		</g>
	</g>
	<g>
		<g>
			<path class="st17" d="M389.3,556.3c1.7,0,2.8,0.7,3.6,1.8l-0.9,0.6c-0.6-0.8-1.6-1.3-2.7-1.3c-2,0-3.6,1.6-3.6,3.8
				s1.6,3.8,3.6,3.8c1.1,0,2-0.5,2.5-1v-2h-3.2v-1h4.4v3.4c-0.9,1-2.1,1.6-3.7,1.6c-2.7,0-4.8-1.9-4.8-4.8
				C384.5,558.2,386.6,556.3,389.3,556.3z"/>
			<path class="st17" d="M394.6,556.5h6.1v1h-5v3h4.9v1h-4.9v3.2h5v1h-6.1V556.5z"/>
			<path class="st17" d="M403.4,558.3v7.5h-1.2v-9.3h1.2l5.4,7.4v-7.4h1.2v9.3h-1.1L403.4,558.3z"/>
			<path class="st17" d="M411.8,556.5h6.1v1h-5v3h4.9v1H413v3.2h5v1h-6.1v-9.2H411.8z"/>
			<path class="st17" d="M422.8,556.5h6.1v1h-5v3h4.9v1H424v4.3h-1.2V556.5z"/>
		</g>
	</g>
	<g>
		<g>
			<path class="st17" d="M444.7,556.3c1.7,0,2.8,0.7,3.6,1.8l-0.9,0.6c-0.6-0.8-1.6-1.3-2.7-1.3c-2,0-3.6,1.6-3.6,3.8
				s1.6,3.8,3.6,3.8c1.1,0,2-0.5,2.5-1v-2H444v-1h4.4v3.4c-0.9,1-2.1,1.6-3.7,1.6c-2.7,0-4.8-1.9-4.8-4.8
				C439.9,558.2,442,556.3,444.7,556.3z"/>
			<path class="st17" d="M449.9,556.5h6.1v1h-5v3h4.9v1H451v3.2h5v1h-6.1V556.5z"/>
			<path class="st17" d="M458.8,558.3v7.5h-1.2v-9.3h1.2l5.4,7.4v-7.4h1.2v9.3h-1.1L458.8,558.3z"/>
			<path class="st17" d="M467.2,556.5h6.1v1h-5v3h4.9v1h-4.9v3.2h5v1h-6.1V556.5z"/>
			<path class="st17" d="M482.7,556.3c1.7,0,2.8,0.7,3.6,1.8l-0.9,0.6c-0.6-0.8-1.6-1.3-2.7-1.3c-2,0-3.6,1.6-3.6,3.8
				s1.6,3.8,3.6,3.8c1.1,0,2-0.5,2.5-1v-2H482v-1h4.4v3.4c-0.9,1-2.1,1.6-3.7,1.6c-2.7,0-4.8-1.9-4.8-4.8
				C477.8,558.2,480,556.3,482.7,556.3z"/>
		</g>
	</g>
	<g>
		<g>
			<path class="st17" d="M501,556.3c1.7,0,2.8,0.7,3.6,1.8l-0.9,0.6c-0.6-0.8-1.6-1.3-2.7-1.3c-2,0-3.6,1.6-3.6,3.8s1.6,3.8,3.6,3.8
				c1.1,0,2-0.5,2.5-1v-2h-3.2v-1h4.4v3.4c-0.9,1-2.1,1.6-3.7,1.6c-2.7,0-4.8-1.9-4.8-4.8C496.2,558.2,498.3,556.3,501,556.3z"/>
			<path class="st17" d="M506.2,556.5h6.1v1h-5v3h4.9v1h-4.9v3.2h5v1h-6.1L506.2,556.5L506.2,556.5z"/>
			<path class="st17" d="M515.1,558.3v7.5h-1.2v-9.3h1.2l5.4,7.4v-7.4h1.2v9.3h-1.1L515.1,558.3z"/>
			<path class="st17" d="M523.5,556.5h6.1v1h-5v3h4.9v1h-4.9v3.2h5v1h-6.1V556.5z"/>
			<path class="st17" d="M541.1,561.5h-5.5v4.3h-1.2v-9.3h1.2v4h5.5v-4h1.2v9.3h-1.2V561.5z"/>
		</g>
	</g>
	<g>
		<g>
			<path class="st17" d="M560.4,556.3c1.7,0,2.8,0.7,3.6,1.8l-0.9,0.6c-0.6-0.8-1.6-1.3-2.7-1.3c-2,0-3.6,1.6-3.6,3.8
				s1.6,3.8,3.6,3.8c1.1,0,2-0.5,2.5-1v-2h-3.2v-1h4.4v3.4c-0.9,1-2.1,1.6-3.7,1.6c-2.7,0-4.8-1.9-4.8-4.8
				C555.6,558.2,557.8,556.3,560.4,556.3z"/>
			<path class="st17" d="M565.7,556.5h6.1v1h-5v3h4.9v1h-4.9v3.2h5v1h-6.1V556.5z"/>
			<path class="st17" d="M574.5,558.3v7.5h-1.2v-9.3h1.2l5.4,7.4v-7.4h1.2v9.3H580L574.5,558.3z"/>
			<path class="st17" d="M583,556.5h6.1v1h-5v3h4.9v1h-4.9v3.2h5v1H583V556.5z"/>
			<path class="st17" d="M594,556.5h1.2v9.3H594V556.5z"/>
		</g>
	</g>
	<g>
		<g>
			<path class="st17" d="M615.4,556.3c1.7,0,2.8,0.7,3.6,1.8l-0.9,0.6c-0.6-0.8-1.6-1.3-2.7-1.3c-2,0-3.6,1.6-3.6,3.8
				s1.6,3.8,3.6,3.8c1.1,0,2-0.5,2.5-1v-2h-3.2v-1h4.4v3.4c-0.9,1-2.1,1.6-3.7,1.6c-2.7,0-4.8-1.9-4.8-4.8
				C610.6,558.2,612.8,556.3,615.4,556.3z"/>
			<path class="st17" d="M620.7,556.5h6.1v1h-5v3h4.9v1h-4.9v3.2h5v1h-6.1V556.5z"/>
			<path class="st17" d="M629.5,558.3v7.5h-1.2v-9.3h1.2l5.4,7.4v-7.4h1.2v9.3H635L629.5,558.3z"/>
			<path class="st17" d="M638,556.5h6.1v1h-5v3h4.9v1h-4.9v3.2h5v1H638V556.5z"/>
			<path class="st17" d="M648.6,564c0.4,0.5,1,0.9,1.8,0.9c1.1,0,1.9-0.8,1.9-2v-6.5h1.2v6.5c0,2-1.3,3-3,3c-1,0-1.8-0.3-2.4-1.1
				L648.6,564z"/>
		</g>
	</g>
	<g>
		<g>
			<path class="st17" d="M670.5,556.2c1.7,0,2.8,0.7,3.6,1.8l-0.9,0.6c-0.6-0.8-1.6-1.3-2.7-1.3c-2,0-3.6,1.6-3.6,3.8
				s1.6,3.8,3.6,3.8c1.1,0,2-0.5,2.5-1V562h-3.2v-1h4.4v3.4c-0.9,1-2.1,1.6-3.7,1.6c-2.7,0-4.8-1.9-4.8-4.8
				C665.6,558.2,667.8,556.2,670.5,556.2z"/>
			<path class="st17" d="M675.7,556.4h6.1v1h-5v3h4.9v1h-4.9v3.2h5v1h-6.1V556.4z"/>
			<path class="st17" d="M684.5,558.2v7.5h-1.2v-9.3h1.2l5.4,7.4v-7.4h1.2v9.3H690L684.5,558.2z"/>
			<path class="st17" d="M693,556.4h6.1v1h-5v3h4.9v1h-4.9v3.2h5v1H693V556.4z"/>
			<path class="st17" d="M706.1,561.5l-0.9,1.1v3.1H704v-9.3h1.2v4.8l4.1-4.8h1.5l-3.9,4.4l4.2,4.9h-1.4L706.1,561.5z"/>
		</g>
	</g>
	<g>
		<g>
			<path class="st17" d="M724.7,556.3c1.7,0,2.8,0.7,3.6,1.8l-0.9,0.6c-0.6-0.8-1.6-1.3-2.7-1.3c-2,0-3.6,1.6-3.6,3.8
				s1.6,3.8,3.6,3.8c1.1,0,2-0.5,2.5-1v-2H724v-1h4.4v3.4c-0.9,1-2.1,1.6-3.7,1.6c-2.7,0-4.8-1.9-4.8-4.8
				C719.9,558.2,722,556.3,724.7,556.3z"/>
			<path class="st17" d="M729.9,556.5h6.1v1h-5v3h4.9v1H731v3.2h5v1h-6.1V556.5z"/>
			<path class="st17" d="M738.8,558.3v7.5h-1.2v-9.3h1.2l5.4,7.4v-7.4h1.2v9.3h-1.1L738.8,558.3z"/>
			<path class="st17" d="M747.2,556.5h6.1v1h-5v3h4.9v1h-4.9v3.2h5v1h-6.1V556.5z"/>
			<path class="st17" d="M766.2,558l-3.2,7.8h-0.5l-3.2-7.8v7.8h-1.2v-9.3h1.7l2.9,7.1l2.9-7.1h1.7v9.3h-1.2L766.2,558L766.2,558z"
				/>
		</g>
	</g>
	<g>
		<g>
			<path class="st17" d="M23.1,495.6c0.6,0.7,1.5,1.2,2.5,1.2c1.4,0,2-0.8,2-1.7c0-1.2-1-1.7-2.2-2.2c-1.3-0.6-2.8-1.2-2.8-3.1
				c0-1.6,1.3-2.8,3.1-2.8c1.2,0,2.2,0.4,2.9,1.1l-0.7,1c-0.6-0.6-1.4-0.9-2.3-0.9c-1,0-1.8,0.6-1.8,1.6s1,1.5,2,2
				c1.4,0.6,2.9,1.4,2.9,3.4c0,1.6-1.1,3-3.3,3c-1.4,0-2.5-0.5-3.3-1.3L23.1,495.6z"/>
			<path class="st17" d="M34.7,496.9c-0.5,0.7-1.3,1-2.1,1c-1.3,0-2.4-1-2.4-2.6s1.1-2.5,2.4-2.5c0.8,0,1.6,0.3,2.1,1v-1.3
				c0-1.1-0.6-1.6-1.6-1.6c-0.7,0-1.4,0.3-2,0.9l-0.5-0.8c0.8-0.8,1.7-1.1,2.7-1.1c1.6,0,2.6,0.8,2.6,2.5v5.4h-1.2V496.9z
				 M34.7,494.6c-0.4-0.7-1-1-1.7-1c-1,0-1.6,0.8-1.6,1.7c0,1,0.6,1.7,1.6,1.7c0.7,0,1.3-0.3,1.7-1V494.6z"/>
			<path class="st17" d="M46.1,492.1c0-0.8-0.3-1.3-1.1-1.3c-0.7,0-1.4,0.6-1.7,1.2v5.7h-1.2v-5.6c0-0.8-0.3-1.3-1.1-1.3
				c-0.7,0-1.4,0.6-1.7,1.2v5.7h-1.2V490h1.2v1.1c0.3-0.6,1.2-1.3,2.2-1.3s1.6,0.6,1.8,1.4c0.4-0.7,1.3-1.4,2.2-1.4
				c1.2,0,1.8,0.6,1.8,2v5.9h-1.2V492.1z"/>
			<path class="st17" d="M49.4,500.7V490h1.2v1.1c0.5-0.8,1.2-1.3,2.1-1.3c1.8,0,2.8,1.6,2.8,4s-1,4.1-2.8,4.1
				c-0.8,0-1.6-0.4-2.1-1.3v4.1L49.4,500.7L49.4,500.7z M52.4,490.8c-0.7,0-1.5,0.6-1.8,1.2v3.5c0.3,0.7,1,1.3,1.8,1.3
				c1.3,0,1.9-1.4,1.9-3C54.3,492.2,53.7,490.8,52.4,490.8z"/>
			<path class="st17" d="M57.3,487h1.2v10.7h-1.2V487z"/>
			<path class="st17" d="M63.4,489.8c2.1,0,3.1,1.8,3.1,4.1v0.4h-5.1c0,1.6,0.9,2.7,2.3,2.7c0.7,0,1.4-0.3,1.9-0.9l0.6,0.7
				c-0.6,0.8-1.5,1.2-2.6,1.2c-2.1,0-3.4-1.7-3.4-4.1C60.2,491.6,61.4,489.8,63.4,489.8z M61.4,493.4h4c0-1.2-0.5-2.6-2-2.6
				C62,490.8,61.4,492.3,61.4,493.4z"/>
			<path class="st17" d="M73.4,488.7l-1.7,1.8l-0.8-0.8l2.6-2.6h1.1v10.7h-1.3v-9.1H73.4z"/>
		</g>
	</g>
	<g>
		<g>
			<path class="st17" d="M23.1,435.5c0.6,0.7,1.5,1.2,2.5,1.2c1.4,0,2-0.8,2-1.7c0-1.2-1-1.7-2.2-2.2c-1.3-0.6-2.8-1.2-2.8-3.1
				c0-1.6,1.3-2.8,3.1-2.8c1.2,0,2.2,0.4,2.9,1.1l-0.7,1c-0.6-0.6-1.4-0.9-2.3-0.9c-1,0-1.8,0.6-1.8,1.6s1,1.5,2,2
				c1.4,0.6,2.9,1.4,2.9,3.4c0,1.6-1.1,3-3.3,3c-1.4,0-2.5-0.5-3.3-1.3L23.1,435.5z"/>
			<path class="st17" d="M34.7,436.7c-0.5,0.7-1.3,1-2.1,1c-1.3,0-2.4-1-2.4-2.6s1.1-2.5,2.4-2.5c0.8,0,1.6,0.3,2.1,1v-1.3
				c0-1.1-0.6-1.6-1.6-1.6c-0.7,0-1.4,0.3-2,0.9l-0.5-0.8c0.8-0.8,1.7-1.1,2.7-1.1c1.6,0,2.6,0.8,2.6,2.5v5.4h-1.2V436.7z
				 M34.7,434.5c-0.4-0.7-1-1-1.7-1c-1,0-1.6,0.8-1.6,1.7c0,1,0.6,1.7,1.6,1.7c0.7,0,1.3-0.3,1.7-1V434.5z"/>
			<path class="st17" d="M46.1,432c0-0.8-0.3-1.3-1.1-1.3c-0.7,0-1.4,0.6-1.7,1.2v5.7h-1.2V432c0-0.8-0.3-1.3-1.1-1.3
				c-0.7,0-1.4,0.6-1.7,1.2v5.7h-1.2v-7.7h1.2v1.1c0.3-0.6,1.2-1.3,2.2-1.3s1.6,0.6,1.8,1.4c0.4-0.7,1.3-1.4,2.2-1.4
				c1.2,0,1.8,0.6,1.8,2v5.9h-1.2V432z"/>
			<path class="st17" d="M49.4,440.5v-10.7h1.2v1.1c0.5-0.8,1.2-1.3,2.1-1.3c1.8,0,2.8,1.6,2.8,4s-1,4.1-2.8,4.1
				c-0.8,0-1.6-0.4-2.1-1.3v4.1L49.4,440.5L49.4,440.5z M52.4,430.7c-0.7,0-1.5,0.6-1.8,1.2v3.5c0.3,0.7,1,1.3,1.8,1.3
				c1.3,0,1.9-1.4,1.9-3C54.3,432,53.7,430.7,52.4,430.7z"/>
			<path class="st17" d="M57.3,426.9h1.2v10.7h-1.2V426.9z"/>
			<path class="st17" d="M63.4,429.7c2.1,0,3.1,1.8,3.1,4.1v0.4h-5.1c0,1.6,0.9,2.7,2.3,2.7c0.7,0,1.4-0.3,1.9-0.9l0.6,0.7
				c-0.6,0.8-1.5,1.2-2.6,1.2c-2.1,0-3.4-1.7-3.4-4.1C60.2,431.5,61.4,429.7,63.4,429.7z M61.4,433.2h4c0-1.2-0.5-2.6-2-2.6
				C62,430.6,61.4,432.1,61.4,433.2z"/>
			<path class="st17" d="M71.6,436.5c3.6-4,4.8-5.3,4.8-6.9c0-1.2-0.8-1.8-1.8-1.8s-1.8,0.5-2.3,1.3l-0.9-0.8
				c0.7-1.1,1.8-1.7,3.2-1.7c1.7,0,3.1,1.1,3.1,2.9s-1.4,3.4-4.3,6.8h4.3v1.1h-6.2v-0.9H71.6z"/>
		</g>
	</g>
	<g>
		<g>
			<path class="st17" d="M23.1,374.3c0.6,0.7,1.5,1.2,2.5,1.2c1.4,0,2-0.8,2-1.7c0-1.2-1-1.7-2.2-2.2c-1.3-0.6-2.8-1.2-2.8-3.1
				c0-1.6,1.3-2.8,3.1-2.8c1.2,0,2.2,0.4,2.9,1.1l-0.7,1c-0.6-0.6-1.4-0.9-2.3-0.9c-1,0-1.8,0.6-1.8,1.6s1,1.5,2,2
				c1.4,0.6,2.9,1.4,2.9,3.4c0,1.6-1.1,3-3.3,3c-1.4,0-2.5-0.5-3.3-1.3L23.1,374.3z"/>
			<path class="st17" d="M34.7,375.6c-0.5,0.7-1.3,1-2.1,1c-1.3,0-2.4-1-2.4-2.6s1.1-2.5,2.4-2.5c0.8,0,1.6,0.3,2.1,1v-1.3
				c0-1.1-0.6-1.6-1.6-1.6c-0.7,0-1.4,0.3-2,0.9l-0.5-0.8c0.8-0.8,1.7-1.1,2.7-1.1c1.6,0,2.6,0.8,2.6,2.5v5.4h-1.2V375.6z
				 M34.7,373.3c-0.4-0.7-1-1-1.7-1c-1,0-1.6,0.8-1.6,1.7c0,1,0.6,1.7,1.6,1.7c0.7,0,1.3-0.3,1.7-1V373.3z"/>
			<path class="st17" d="M46.1,370.8c0-0.8-0.3-1.3-1.1-1.3c-0.7,0-1.4,0.6-1.7,1.2v5.7h-1.2v-5.6c0-0.8-0.3-1.3-1.1-1.3
				c-0.7,0-1.4,0.6-1.7,1.2v5.7h-1.2v-7.7h1.2v1.1c0.3-0.6,1.2-1.3,2.2-1.3s1.6,0.6,1.8,1.4c0.4-0.7,1.3-1.4,2.2-1.4
				c1.2,0,1.8,0.6,1.8,2v5.9h-1.2V370.8z"/>
			<path class="st17" d="M49.4,379.4v-10.7h1.2v1.1c0.5-0.8,1.2-1.3,2.1-1.3c1.8,0,2.8,1.6,2.8,4s-1,4.1-2.8,4.1
				c-0.8,0-1.6-0.4-2.1-1.3v4.1L49.4,379.4L49.4,379.4z M52.4,369.5c-0.7,0-1.5,0.6-1.8,1.2v3.5c0.3,0.7,1,1.3,1.8,1.3
				c1.3,0,1.9-1.4,1.9-3C54.3,370.9,53.7,369.5,52.4,369.5z"/>
			<path class="st17" d="M57.3,365.8h1.2v10.7h-1.2V365.8z"/>
			<path class="st17" d="M63.4,368.5c2.1,0,3.1,1.8,3.1,4.1v0.4h-5.1c0,1.6,0.9,2.7,2.3,2.7c0.7,0,1.4-0.3,1.9-0.9l0.6,0.7
				c-0.6,0.8-1.5,1.2-2.6,1.2c-2.1,0-3.4-1.7-3.4-4.1C60.2,370.3,61.4,368.5,63.4,368.5z M61.4,372.1h4c0-1.2-0.5-2.6-2-2.6
				C62,369.5,61.4,371,61.4,372.1z"/>
			<path class="st17" d="M72,374.1c0.5,0.8,1.3,1.4,2.3,1.4c1.3,0,2-0.8,2-2c0-1.5-1-1.9-2.1-1.9c-0.3,0-0.7,0-0.9,0v-1.2
				c0.1,0,0.6,0,0.8,0c1.1,0,2-0.6,2-1.8c0-1.3-0.8-1.9-1.9-1.9c-1,0-1.7,0.5-2.2,1.3l-0.8-0.7c0.7-1,1.8-1.7,3.1-1.7
				c1.8,0,3.1,0.9,3.1,2.8c0,1.3-1,2.3-2,2.5c1,0.1,2.1,1.1,2.1,2.6c0,1.8-1.2,3.1-3.2,3.1c-1.6,0-2.7-0.8-3.2-1.8L72,374.1z"/>
		</g>
	</g>
	<g>
		<g>
			<path class="st17" d="M23.1,313.2c0.6,0.7,1.5,1.2,2.5,1.2c1.4,0,2-0.8,2-1.7c0-1.2-1-1.7-2.2-2.2c-1.3-0.6-2.8-1.2-2.8-3.1
				c0-1.6,1.3-2.8,3.1-2.8c1.2,0,2.2,0.4,2.9,1.1l-0.7,1c-0.6-0.6-1.4-0.9-2.3-0.9c-1,0-1.8,0.6-1.8,1.6s1,1.5,2,2
				c1.4,0.6,2.9,1.4,2.9,3.4c0,1.6-1.1,3-3.3,3c-1.4,0-2.5-0.5-3.3-1.3L23.1,313.2z"/>
			<path class="st17" d="M34.7,314.5c-0.5,0.7-1.3,1-2.1,1c-1.3,0-2.4-1-2.4-2.6s1.1-2.5,2.4-2.5c0.8,0,1.6,0.3,2.1,1V310
				c0-1.1-0.6-1.6-1.6-1.6c-0.7,0-1.4,0.3-2,0.9l-0.5-0.8c0.8-0.8,1.7-1.1,2.7-1.1c1.6,0,2.6,0.8,2.6,2.5v5.4h-1.2V314.5z
				 M34.7,312.2c-0.4-0.7-1-1-1.7-1c-1,0-1.6,0.8-1.6,1.7c0,1,0.6,1.7,1.6,1.7c0.7,0,1.3-0.3,1.7-1V312.2z"/>
			<path class="st17" d="M46.1,309.7c0-0.8-0.3-1.3-1.1-1.3c-0.7,0-1.4,0.6-1.7,1.2v5.7h-1.2v-5.6c0-0.8-0.3-1.3-1.1-1.3
				c-0.7,0-1.4,0.6-1.7,1.2v5.7h-1.2v-7.7h1.2v1.1c0.3-0.6,1.2-1.3,2.2-1.3s1.6,0.6,1.8,1.4c0.4-0.7,1.3-1.4,2.2-1.4
				c1.2,0,1.8,0.6,1.8,2v5.9h-1.2V309.7z"/>
			<path class="st17" d="M49.4,318.2v-10.7h1.2v1.1c0.5-0.8,1.2-1.3,2.1-1.3c1.8,0,2.8,1.6,2.8,4s-1,4.1-2.8,4.1
				c-0.8,0-1.6-0.4-2.1-1.3v4.1L49.4,318.2L49.4,318.2z M52.4,308.4c-0.7,0-1.5,0.6-1.8,1.2v3.5c0.3,0.7,1,1.3,1.8,1.3
				c1.3,0,1.9-1.4,1.9-3C54.3,309.8,53.7,308.4,52.4,308.4z"/>
			<path class="st17" d="M57.3,304.6h1.2v10.7h-1.2V304.6z"/>
			<path class="st17" d="M63.4,307.4c2.1,0,3.1,1.8,3.1,4.1v0.4h-5.1c0,1.6,0.9,2.7,2.3,2.7c0.7,0,1.4-0.3,1.9-0.9l0.6,0.7
				c-0.6,0.8-1.5,1.2-2.6,1.2c-2.1,0-3.4-1.7-3.4-4.1C60.2,309.2,61.4,307.4,63.4,307.4z M61.4,311h4c0-1.2-0.5-2.6-2-2.6
				C62,308.3,61.4,309.8,61.4,311z"/>
			<path class="st17" d="M75.4,312.6h-4.3v-1.1l3.9-6.8h1.7v6.8h1.2v1.1h-1.2v2.7h-1.3C75.4,315.3,75.4,312.6,75.4,312.6z
				 M72.3,311.4h3.1V306L72.3,311.4z"/>
		</g>
	</g>
	<g>
		<g>
			<path class="st17" d="M23.1,253c0.6,0.7,1.5,1.2,2.5,1.2c1.4,0,2-0.8,2-1.7c0-1.2-1-1.7-2.2-2.2c-1.3-0.6-2.8-1.2-2.8-3.1
				c0-1.6,1.3-2.8,3.1-2.8c1.2,0,2.2,0.4,2.9,1.1l-0.7,1c-0.6-0.6-1.4-0.9-2.3-0.9c-1,0-1.8,0.6-1.8,1.6s1,1.5,2,2
				c1.4,0.6,2.9,1.4,2.9,3.4c0,1.6-1.1,3-3.3,3c-1.4,0-2.5-0.5-3.3-1.3L23.1,253z"/>
			<path class="st17" d="M34.7,254.3c-0.5,0.7-1.3,1-2.1,1c-1.3,0-2.4-1-2.4-2.6s1.1-2.5,2.4-2.5c0.8,0,1.6,0.3,2.1,1v-1.3
				c0-1.1-0.6-1.6-1.6-1.6c-0.7,0-1.4,0.3-2,0.9l-0.5-0.8c0.8-0.8,1.7-1.1,2.7-1.1c1.6,0,2.6,0.8,2.6,2.5v5.4h-1.2V254.3z
				 M34.7,252.1c-0.4-0.7-1-1-1.7-1c-1,0-1.6,0.8-1.6,1.7c0,1,0.6,1.7,1.6,1.7c0.7,0,1.3-0.3,1.7-1V252.1z"/>
			<path class="st17" d="M46.1,249.5c0-0.8-0.3-1.3-1.1-1.3c-0.7,0-1.4,0.6-1.7,1.2v5.7h-1.2v-5.6c0-0.8-0.3-1.3-1.1-1.3
				c-0.7,0-1.4,0.6-1.7,1.2v5.7h-1.2v-7.7h1.2v1.1c0.3-0.6,1.2-1.3,2.2-1.3s1.6,0.6,1.8,1.4c0.4-0.7,1.3-1.4,2.2-1.4
				c1.2,0,1.8,0.6,1.8,2v5.9h-1.2V249.5z"/>
			<path class="st17" d="M49.4,258.1v-10.7h1.2v1.1c0.5-0.8,1.2-1.3,2.1-1.3c1.8,0,2.8,1.6,2.8,4s-1,4.1-2.8,4.1
				c-0.8,0-1.6-0.4-2.1-1.3v4.1H49.4z M52.4,248.2c-0.7,0-1.5,0.6-1.8,1.2v3.5c0.3,0.7,1,1.3,1.8,1.3c1.3,0,1.9-1.4,1.9-3
				C54.3,249.6,53.7,248.2,52.4,248.2z"/>
			<path class="st17" d="M57.3,244.5h1.2v10.7h-1.2V244.5z"/>
			<path class="st17" d="M63.4,247.2c2.1,0,3.1,1.8,3.1,4.1v0.4h-5.1c0,1.6,0.9,2.7,2.3,2.7c0.7,0,1.4-0.3,1.9-0.9l0.6,0.7
				c-0.6,0.8-1.5,1.2-2.6,1.2c-2.1,0-3.4-1.7-3.4-4.1C60.2,249,61.4,247.2,63.4,247.2z M61.4,250.8h4c0-1.2-0.5-2.6-2-2.6
				C62,248.2,61.4,249.7,61.4,250.8z"/>
			<path class="st17" d="M72.4,252.8c0.5,0.9,1.2,1.4,2.3,1.4c1.2,0,2-1.1,2-2.3c0-1.5-0.7-2.4-1.9-2.4c-0.8,0-1.4,0.3-2,1l-1-0.3
				v-5.7h5.6v1.1h-4.3v3.7c0.4-0.5,1.1-0.9,2-0.9c1.6,0,2.8,1.2,2.8,3.4c0,2-1.3,3.5-3.2,3.5c-1.6,0-2.5-0.7-3.2-1.7L72.4,252.8z"/>
		</g>
	</g>
	<g>
		<g>
			<path class="st17" d="M23.1,191.9c0.6,0.7,1.5,1.2,2.5,1.2c1.4,0,2-0.8,2-1.7c0-1.2-1-1.7-2.2-2.2c-1.3-0.6-2.8-1.2-2.8-3.1
				c0-1.6,1.3-2.8,3.1-2.8c1.2,0,2.2,0.4,2.9,1.1l-0.7,1c-0.6-0.6-1.4-0.9-2.3-0.9c-1,0-1.8,0.6-1.8,1.6s1,1.5,2,2
				c1.4,0.6,2.9,1.4,2.9,3.4c0,1.6-1.1,3-3.3,3c-1.4,0-2.5-0.5-3.3-1.3L23.1,191.9z"/>
			<path class="st17" d="M34.7,193.2c-0.5,0.7-1.3,1-2.1,1c-1.3,0-2.4-1-2.4-2.6s1.1-2.5,2.4-2.5c0.8,0,1.6,0.3,2.1,1v-1.3
				c0-1.1-0.6-1.6-1.6-1.6c-0.7,0-1.4,0.3-2,0.9l-0.5-0.8c0.8-0.8,1.7-1.1,2.7-1.1c1.6,0,2.6,0.8,2.6,2.5v5.4h-1.2V193.2z
				 M34.7,190.9c-0.4-0.7-1-1-1.7-1c-1,0-1.6,0.8-1.6,1.7c0,1,0.6,1.7,1.6,1.7c0.7,0,1.3-0.3,1.7-1V190.9z"/>
			<path class="st17" d="M46.1,188.4c0-0.8-0.3-1.3-1.1-1.3c-0.7,0-1.4,0.6-1.7,1.2v5.7h-1.2v-5.6c0-0.8-0.3-1.3-1.1-1.3
				c-0.7,0-1.4,0.6-1.7,1.2v5.7h-1.2v-7.7h1.2v1.1c0.3-0.6,1.2-1.3,2.2-1.3s1.6,0.6,1.8,1.4c0.4-0.7,1.3-1.4,2.2-1.4
				c1.2,0,1.8,0.6,1.8,2v5.9h-1.2V188.4z"/>
			<path class="st17" d="M49.4,196.9v-10.7h1.2v1.1c0.5-0.8,1.2-1.3,2.1-1.3c1.8,0,2.8,1.6,2.8,4s-1,4.1-2.8,4.1
				c-0.8,0-1.6-0.4-2.1-1.3v4.1L49.4,196.9L49.4,196.9z M52.4,187.1c-0.7,0-1.5,0.6-1.8,1.2v3.5c0.3,0.7,1,1.3,1.8,1.3
				c1.3,0,1.9-1.4,1.9-3C54.3,188.5,53.7,187.1,52.4,187.1z"/>
			<path class="st17" d="M57.3,183.3h1.2V194h-1.2V183.3z"/>
			<path class="st17" d="M63.4,186.1c2.1,0,3.1,1.8,3.1,4.1v0.4h-5.1c0,1.6,0.9,2.7,2.3,2.7c0.7,0,1.4-0.3,1.9-0.9l0.6,0.7
				c-0.6,0.8-1.5,1.2-2.6,1.2c-2.1,0-3.4-1.7-3.4-4.1C60.2,187.9,61.4,186.1,63.4,186.1z M61.4,189.7h4c0-1.2-0.5-2.6-2-2.6
				C62,187,61.4,188.5,61.4,189.7z"/>
			<path class="st17" d="M75.2,183.2c1.1,0,2,0.5,2.6,1.3l-0.7,0.9c-0.4-0.7-0.9-1.1-1.8-1.1c-1.7,0-2.4,2.2-2.4,4.3
				c0,0.1,0,0.2,0,0.3c0.4-0.8,1.3-1.6,2.4-1.6c1.6,0,2.9,1.1,2.9,3.4c0,1.8-1.1,3.5-3.1,3.5c-2.6,0-3.5-2.7-3.5-5.5
				C71.5,185.8,72.5,183.2,75.2,183.2z M74.9,188.4c-0.9,0-1.7,0.8-2.1,1.6c0.1,1.2,0.5,3,2,3c1.3,0,1.9-1.2,1.9-2.3
				C76.8,189.1,75.9,188.4,74.9,188.4z"/>
		</g>
	</g>
	<g>
		<g>
			<path class="st17" d="M23.1,131.7c0.6,0.7,1.5,1.2,2.5,1.2c1.4,0,2-0.8,2-1.7c0-1.2-1-1.7-2.2-2.2c-1.3-0.6-2.8-1.2-2.8-3.1
				c0-1.6,1.3-2.8,3.1-2.8c1.2,0,2.2,0.4,2.9,1.1l-0.7,1c-0.6-0.6-1.4-0.9-2.3-0.9c-1,0-1.8,0.6-1.8,1.6s1,1.5,2,2
				c1.4,0.6,2.9,1.4,2.9,3.4c0,1.6-1.1,3-3.3,3c-1.4,0-2.5-0.5-3.3-1.3L23.1,131.7z"/>
			<path class="st17" d="M34.7,133c-0.5,0.7-1.3,1-2.1,1c-1.3,0-2.4-1-2.4-2.6s1.1-2.5,2.4-2.5c0.8,0,1.6,0.3,2.1,1v-1.3
				c0-1.1-0.6-1.6-1.6-1.6c-0.7,0-1.4,0.3-2,0.9l-0.5-0.8c0.8-0.8,1.7-1.1,2.7-1.1c1.6,0,2.6,0.8,2.6,2.5v5.4h-1.2V133z M34.7,130.8
				c-0.4-0.7-1-1-1.7-1c-1,0-1.6,0.8-1.6,1.7c0,1,0.6,1.7,1.6,1.7c0.7,0,1.3-0.3,1.7-1V130.8z"/>
			<path class="st17" d="M46.1,128.3c0-0.8-0.3-1.3-1.1-1.3c-0.7,0-1.4,0.6-1.7,1.2v5.7h-1.2v-5.6c0-0.8-0.3-1.3-1.1-1.3
				c-0.7,0-1.4,0.6-1.7,1.2v5.7h-1.2v-7.7h1.2v1.1c0.3-0.6,1.2-1.3,2.2-1.3s1.6,0.6,1.8,1.4c0.4-0.7,1.3-1.4,2.2-1.4
				c1.2,0,1.8,0.6,1.8,2v5.9h-1.2V128.3z"/>
			<path class="st17" d="M49.4,136.8v-10.7h1.2v1.1c0.5-0.8,1.2-1.3,2.1-1.3c1.8,0,2.8,1.6,2.8,4s-1,4.1-2.8,4.1
				c-0.8,0-1.6-0.4-2.1-1.3v4.1H49.4z M52.4,127c-0.7,0-1.5,0.6-1.8,1.2v3.5c0.3,0.7,1,1.3,1.8,1.3c1.3,0,1.9-1.4,1.9-3
				C54.3,128.3,53.7,127,52.4,127z"/>
			<path class="st17" d="M57.3,123.2h1.2v10.7h-1.2V123.2z"/>
			<path class="st17" d="M63.4,125.9c2.1,0,3.1,1.8,3.1,4.1v0.4h-5.1c0,1.6,0.9,2.7,2.3,2.7c0.7,0,1.4-0.3,1.9-0.9l0.6,0.7
				c-0.6,0.8-1.5,1.2-2.6,1.2c-2.1,0-3.4-1.7-3.4-4.1C60.2,127.7,61.4,125.9,63.4,125.9z M61.4,129.5h4c0-1.2-0.5-2.6-2-2.6
				C62,126.9,61.4,128.4,61.4,129.5z"/>
			<path class="st17" d="M75.8,124.3h-4.6v-1.1h6.1v0.9l-3.5,9.8h-1.4L75.8,124.3z"/>
		</g>
	</g>
	<g>
		<g>
			<path d="M22.7,92.9c0.7,0.8,1.9,1.5,3.4,1.5c1.9,0,2.5-1,2.5-1.8c0-1.3-1.3-1.6-2.7-2c-1.7-0.4-3.6-0.9-3.6-3c0-1.8,1.6-3,3.7-3
				c1.6,0,2.9,0.5,3.8,1.5l-0.8,1c-0.8-0.9-1.9-1.3-3.1-1.3c-1.3,0-2.2,0.7-2.2,1.7c0,1.1,1.2,1.4,2.6,1.8c1.7,0.5,3.7,1,3.7,3.2
				c0,1.6-1.1,3.1-3.9,3.1c-1.9,0-3.2-0.7-4.1-1.7L22.7,92.9z"/>
			<path d="M32.1,93.8v-5.1h-1.3v-1.1h1.3v-2.1h1.2v2.1h1.6v1.1h-1.6v4.8c0,0.6,0.3,1,0.8,1c0.3,0,0.7-0.1,0.8-0.3l0.4,0.9
				c-0.3,0.3-0.7,0.5-1.4,0.5C32.7,95.6,32.1,94.9,32.1,93.8z"/>
			<path d="M41.4,94.5c-0.6,0.7-1.5,1.1-2.6,1.1c-1.3,0-2.7-0.9-2.7-2.6s1.4-2.5,2.7-2.5c1.1,0,1.9,0.3,2.6,1.1v-1.4
				c0-1-0.8-1.6-2-1.6c-0.9,0-1.7,0.3-2.4,1.1l-0.6-0.8c0.8-0.9,1.8-1.3,3.1-1.3c1.6,0,3,0.7,3,2.6v5.3h-1.2v-1H41.4z M41.4,92.3
				c-0.5-0.6-1.3-1-2.1-1c-1.1,0-1.9,0.7-1.9,1.7s0.8,1.7,1.9,1.7c0.8,0,1.7-0.3,2.1-1V92.3z"/>
			<path d="M45,87.7h1.2v1.2c0.6-0.8,1.5-1.4,2.6-1.4v1.2c-0.1,0-0.3,0-0.5,0c-0.7,0-1.7,0.6-2.1,1.2v5.5H45V87.7z"/>
			<path d="M50.3,87.7h1.2v1.2c0.6-0.8,1.5-1.4,2.6-1.4v1.2c-0.1,0-0.3,0-0.5,0c-0.7,0-1.7,0.6-2.1,1.2v5.5h-1.2V87.7z"/>
			<path d="M59,87.5c2.3,0,3.7,1.8,3.7,4.1v0.3h-6.3c0.1,1.5,1.1,2.7,2.8,2.7c0.9,0,1.8-0.4,2.4-1l0.6,0.8c-0.8,0.8-1.8,1.2-3.1,1.2
				c-2.3,0-3.9-1.6-3.9-4.1C55.1,89.3,56.7,87.5,59,87.5z M56.4,91h5.1c0-1.2-0.8-2.6-2.5-2.6C57.3,88.5,56.5,89.9,56.4,91z"/>
			<path d="M70.2,94.3c-0.6,0.8-1.5,1.3-2.6,1.3c-2,0-3.4-1.5-3.4-4s1.4-4.1,3.4-4.1c1,0,2,0.5,2.6,1.4v-4.1h1.2v10.7h-1.2V94.3z
				 M70.2,89.8c-0.4-0.7-1.4-1.2-2.3-1.2c-1.6,0-2.5,1.3-2.5,3s0.9,3,2.5,3c1,0,1.9-0.5,2.3-1.2V89.8z"/>
			<path d="M77.9,84.7h1.2v4.1c0.6-0.8,1.6-1.4,2.6-1.4c2,0,3.4,1.6,3.4,4.1s-1.4,4-3.4,4c-1.1,0-2-0.6-2.6-1.3v1.2h-1.2V84.7z
				 M81.4,94.5c1.6,0,2.5-1.3,2.5-3s-0.9-3-2.5-3c-0.9,0-1.9,0.6-2.3,1.2v3.5C79.5,94,80.5,94.5,81.4,94.5z"/>
			<path d="M86.7,91.5c0-2.2,1.5-4,3.8-4c2.4,0,3.8,1.8,3.8,4s-1.5,4.1-3.8,4.1S86.7,93.8,86.7,91.5z M93.1,91.5c0-1.6-0.9-3-2.6-3
				c-1.6,0-2.6,1.4-2.6,3s0.9,3,2.6,3S93.1,93.1,93.1,91.5z"/>
			<path d="M99,92.2l-2.3,3.2h-1.4l3-4l-2.8-3.8h1.4l2.1,2.9l2.1-2.9h1.4l-2.8,3.8l3,4h-1.4L99,92.2z"/>
			<path d="M107.4,87.5c2.3,0,3.7,1.8,3.7,4.1v0.3h-6.3c0.1,1.5,1.1,2.7,2.8,2.7c0.9,0,1.8-0.4,2.4-1l0.6,0.8
				c-0.8,0.8-1.8,1.2-3.1,1.2c-2.3,0-3.9-1.6-3.9-4.1C103.6,89.3,105.2,87.5,107.4,87.5z M104.9,91h5.1c0-1.2-0.8-2.6-2.5-2.6
				C105.8,88.5,104.9,89.9,104.9,91z"/>
			<path d="M113,93.5c0.5,0.6,1.5,1.1,2.5,1.1c1.2,0,1.8-0.5,1.8-1.3s-0.9-1.1-2-1.4c-1.3-0.3-2.8-0.7-2.8-2.3c0-1.2,1-2.2,2.9-2.2
				c1.3,0,2.2,0.5,2.9,1.1l-0.6,0.8c-0.5-0.6-1.3-1-2.3-1c-1.1,0-1.7,0.5-1.7,1.2c0,0.8,0.9,1,1.9,1.2c1.3,0.3,2.9,0.7,2.9,2.4
				c0,1.3-1,2.3-3,2.3c-1.3,0-2.3-0.4-3.1-1.2L113,93.5z"/>
			<path d="M129.5,94.5c-0.6,0.7-1.5,1.1-2.6,1.1c-1.3,0-2.7-0.9-2.7-2.6s1.4-2.5,2.7-2.5c1.1,0,1.9,0.3,2.6,1.1v-1.4
				c0-1-0.8-1.6-2-1.6c-0.9,0-1.7,0.3-2.4,1.1l-0.6-0.8c0.8-0.9,1.8-1.3,3.1-1.3c1.6,0,3,0.7,3,2.6v5.3h-1.2L129.5,94.5L129.5,94.5z
				 M129.5,92.3c-0.5-0.6-1.3-1-2.1-1c-1.1,0-1.9,0.7-1.9,1.7s0.8,1.7,1.9,1.7c0.8,0,1.7-0.3,2.1-1V92.3z"/>
			<path d="M133.1,87.7h1.2v1.2c0.6-0.8,1.5-1.4,2.6-1.4v1.2c-0.1,0-0.3,0-0.5,0c-0.7,0-1.7,0.6-2.1,1.2v5.5h-1.2V87.7z"/>
			<path d="M141.7,87.5c2.3,0,3.7,1.8,3.7,4.1v0.3h-6.3c0.1,1.5,1.1,2.7,2.8,2.7c0.9,0,1.8-0.4,2.4-1l0.6,0.8
				c-0.8,0.8-1.8,1.2-3.1,1.2c-2.3,0-3.9-1.6-3.9-4.1C137.9,89.3,139.5,87.5,141.7,87.5z M139.2,91h5.1c0-1.2-0.8-2.6-2.5-2.6
				C140,88.5,139.2,89.9,139.2,91z"/>
			<path d="M156.3,94.5c-0.6,0.7-1.5,1.1-2.6,1.1c-1.3,0-2.7-0.9-2.7-2.6s1.4-2.5,2.7-2.5c1.1,0,1.9,0.3,2.6,1.1v-1.4
				c0-1-0.8-1.6-2-1.6c-0.9,0-1.7,0.3-2.4,1.1l-0.6-0.8c0.8-0.9,1.8-1.3,3.1-1.3c1.6,0,3,0.7,3,2.6v5.3h-1.2L156.3,94.5L156.3,94.5z
				 M156.3,92.3c-0.5-0.6-1.3-1-2.1-1c-1.1,0-1.9,0.7-1.9,1.7s0.8,1.7,1.9,1.7c0.8,0,1.7-0.3,2.1-1V92.3z"/>
			<path d="M165.1,90.3c0-1.4-0.7-1.8-1.7-1.8c-0.9,0-1.8,0.6-2.3,1.2v5.7h-1.2v-7.7h1.2v1.1c0.5-0.6,1.6-1.3,2.8-1.3
				c1.6,0,2.5,0.8,2.5,2.5v5.4h-1.2v-5.1H165.1z"/>
			<path d="M172.6,85.6c0-0.4,0.4-0.8,0.8-0.8c0.4,0,0.8,0.4,0.8,0.8s-0.4,0.8-0.8,0.8S172.6,86.1,172.6,85.6z M172.9,87.7h1.2v7.7
				h-1.2V87.7z"/>
			<path d="M182.1,94.3c-0.6,0.8-1.5,1.3-2.6,1.3c-2,0-3.4-1.5-3.4-4s1.4-4.1,3.4-4.1c1,0,2,0.5,2.6,1.4v-4.1h1.2v10.7h-1.2V94.3z
				 M182.1,89.8c-0.4-0.7-1.4-1.2-2.3-1.2c-1.6,0-2.5,1.3-2.5,3s0.9,3,2.5,3c1,0,1.9-0.5,2.3-1.2V89.8z"/>
			<path d="M189,87.5c2.3,0,3.7,1.8,3.7,4.1v0.3h-6.3c0.1,1.5,1.1,2.7,2.8,2.7c0.9,0,1.8-0.4,2.4-1l0.6,0.8
				c-0.8,0.8-1.8,1.2-3.1,1.2c-2.3,0-3.9-1.6-3.9-4.1C185.2,89.3,186.8,87.5,189,87.5z M186.5,91h5.1c0-1.2-0.8-2.6-2.5-2.6
				C187.4,88.5,186.5,89.9,186.5,91z"/>
			<path d="M199.9,90.3c0-1.4-0.7-1.8-1.7-1.8c-0.9,0-1.8,0.6-2.3,1.2v5.7h-1.2v-7.7h1.2v1.1c0.5-0.6,1.6-1.3,2.8-1.3
				c1.6,0,2.5,0.8,2.5,2.5v5.4H200v-5.1H199.9z"/>
			<path d="M203.7,93.8v-5.1h-1.3v-1.1h1.3v-2.1h1.2v2.1h1.6v1.1h-1.6v4.8c0,0.6,0.3,1,0.8,1c0.3,0,0.7-0.1,0.8-0.3l0.4,0.9
				c-0.3,0.3-0.7,0.5-1.4,0.5C204.3,95.6,203.7,94.9,203.7,93.8z"/>
			<path d="M208,85.6c0-0.4,0.4-0.8,0.8-0.8c0.4,0,0.8,0.4,0.8,0.8s-0.4,0.8-0.8,0.8C208.3,86.4,208,86.1,208,85.6z M208.2,87.7h1.2
				v7.7h-1.2V87.7z"/>
			<path d="M215.2,87.5c1.4,0,2.2,0.6,2.8,1.3l-0.8,0.7c-0.5-0.7-1.2-1-2-1c-1.6,0-2.7,1.3-2.7,3s1,3,2.7,3c0.8,0,1.5-0.3,2-1
				l0.8,0.7c-0.6,0.8-1.4,1.3-2.8,1.3c-2.3,0-3.9-1.8-3.9-4.1C211.3,89.2,212.9,87.5,215.2,87.5z"/>
			<path d="M224.5,94.5c-0.6,0.7-1.5,1.1-2.6,1.1c-1.3,0-2.7-0.9-2.7-2.6s1.4-2.5,2.7-2.5c1.1,0,1.9,0.3,2.6,1.1v-1.4
				c0-1-0.8-1.6-2-1.6c-0.9,0-1.7,0.3-2.4,1.1l-0.6-0.8c0.8-0.9,1.8-1.3,3.1-1.3c1.6,0,3,0.7,3,2.6v5.3h-1.2L224.5,94.5L224.5,94.5z
				 M224.5,92.3c-0.5-0.6-1.3-1-2.1-1c-1.1,0-1.9,0.7-1.9,1.7s0.8,1.7,1.9,1.7c0.8,0,1.7-0.3,2.1-1V92.3z"/>
			<path d="M228.1,84.7h1.2v10.7h-1.2V84.7z"/>
			<path d="M235.8,93.5c0.5,0.6,1.5,1.1,2.5,1.1c1.2,0,1.8-0.5,1.8-1.3s-0.9-1.1-2-1.4c-1.3-0.3-2.8-0.7-2.8-2.3
				c0-1.2,1-2.2,2.9-2.2c1.3,0,2.2,0.5,2.9,1.1l-0.6,0.8c-0.5-0.6-1.3-1-2.3-1c-1.1,0-1.7,0.5-1.7,1.2c0,0.8,0.9,1,1.9,1.2
				c1.3,0.3,2.9,0.7,2.9,2.4c0,1.3-1,2.3-3,2.3c-1.3,0-2.3-0.4-3.1-1.2L235.8,93.5z"/>
			<path d="M248.5,90.3c0-1.4-0.7-1.8-1.7-1.8c-0.9,0-1.8,0.6-2.3,1.2v5.7h-1.2V84.7h1.2v4.1c0.5-0.6,1.6-1.3,2.8-1.3
				c1.6,0,2.5,0.8,2.5,2.5v5.5h-1.2v-5.2H248.5z"/>
			<path d="M257,94.5c-0.6,0.7-1.5,1.1-2.6,1.1c-1.3,0-2.7-0.9-2.7-2.6s1.4-2.5,2.7-2.5c1.1,0,1.9,0.3,2.6,1.1v-1.4
				c0-1-0.8-1.6-2-1.6c-0.9,0-1.7,0.3-2.4,1.1l-0.6-0.8c0.8-0.9,1.8-1.3,3.1-1.3c1.6,0,3,0.7,3,2.6v5.3H257V94.5z M257,92.3
				c-0.5-0.6-1.3-1-2.1-1c-1.1,0-1.9,0.7-1.9,1.7s0.8,1.7,1.9,1.7c0.8,0,1.7-0.3,2.1-1V92.3z"/>
			<path d="M266.2,94.3c-0.6,0.8-1.5,1.3-2.6,1.3c-2,0-3.4-1.5-3.4-4s1.4-4.1,3.4-4.1c1,0,2,0.5,2.6,1.4v-4.1h1.2v10.7h-1.2V94.3z
				 M266.2,89.8c-0.4-0.7-1.4-1.2-2.3-1.2c-1.6,0-2.5,1.3-2.5,3s0.9,3,2.5,3c1,0,1.9-0.5,2.3-1.2V89.8z"/>
			<path d="M273.1,87.5c2.3,0,3.7,1.8,3.7,4.1v0.3h-6.3c0.1,1.5,1.1,2.7,2.8,2.7c0.9,0,1.8-0.4,2.4-1l0.6,0.8
				c-0.8,0.8-1.8,1.2-3.1,1.2c-2.3,0-3.9-1.6-3.9-4.1C269.3,89.3,270.9,87.5,273.1,87.5z M270.6,91h5.1c0-1.2-0.8-2.6-2.5-2.6
				C271.5,88.5,270.6,89.9,270.6,91z"/>
			<path d="M282.5,91.5c0-2.2,1.5-4,3.8-4c2.4,0,3.8,1.8,3.8,4s-1.5,4.1-3.8,4.1C283.9,95.6,282.5,93.8,282.5,91.5z M288.8,91.5
				c0-1.6-0.9-3-2.6-3c-1.6,0-2.6,1.4-2.6,3s0.9,3,2.6,3S288.8,93.1,288.8,91.5z"/>
			<path d="M292.4,88.7h-1.3v-1.1h1.3V87c0-1.6,0.9-2.5,2.2-2.5c0.4,0,0.9,0.1,1.2,0.3l-0.3,0.9c-0.2-0.1-0.4-0.2-0.7-0.2
				c-0.8,0-1.2,0.5-1.2,1.5v0.6h1.6v1.1h-1.6v6.7h-1.2V88.7z"/>
			<path d="M300.3,91.5c0-2.2,1.5-4,3.8-4c2.4,0,3.8,1.8,3.8,4s-1.5,4.1-3.8,4.1C301.7,95.6,300.3,93.8,300.3,91.5z M306.6,91.5
				c0-1.6-0.9-3-2.6-3c-1.6,0-2.6,1.4-2.6,3s0.9,3,2.6,3S306.6,93.1,306.6,91.5z"/>
			<path d="M309.9,87.7h1.2v1.2c0.6-0.8,1.5-1.4,2.6-1.4v1.2c-0.1,0-0.3,0-0.5,0c-0.7,0-1.7,0.6-2.1,1.2v5.5h-1.2V87.7z"/>
			<path d="M320,94.5c-0.6,0.7-1.5,1.1-2.6,1.1c-1.3,0-2.7-0.9-2.7-2.6s1.4-2.5,2.7-2.5c1.1,0,1.9,0.3,2.6,1.1v-1.4
				c0-1-0.8-1.6-2-1.6c-0.9,0-1.7,0.3-2.4,1.1l-0.6-0.8c0.8-0.9,1.8-1.3,3.1-1.3c1.6,0,3,0.7,3,2.6v5.3H320V94.5z M320,92.3
				c-0.5-0.6-1.3-1-2.1-1c-1.1,0-1.9,0.7-1.9,1.7s0.8,1.7,1.9,1.7c0.8,0,1.7-0.3,2.1-1V92.3z"/>
			<path d="M328.8,90.3c0-1.4-0.7-1.8-1.7-1.8c-0.9,0-1.8,0.6-2.3,1.2v5.7h-1.2v-7.7h1.2v1.1c0.5-0.6,1.6-1.3,2.8-1.3
				c1.6,0,2.5,0.8,2.5,2.5v5.4h-1.2L328.8,90.3L328.8,90.3z"/>
			<path d="M333,96.5c0.6,0.8,1.4,1.1,2.5,1.1c1.3,0,2.5-0.6,2.5-2.3v-1.1c-0.6,0.8-1.5,1.4-2.6,1.4c-2,0-3.4-1.5-3.4-4s1.4-4,3.4-4
				c1,0,2,0.5,2.6,1.4v-1.2h1.2v7.5c0,2.6-1.8,3.4-3.7,3.4c-1.3,0-2.2-0.3-3.1-1.2L333,96.5z M338,89.8c-0.4-0.7-1.3-1.2-2.3-1.2
				c-1.6,0-2.5,1.2-2.5,2.9c0,1.7,0.9,2.9,2.5,2.9c1,0,1.9-0.6,2.3-1.3V89.8z"/>
			<path d="M344.9,87.5c2.3,0,3.7,1.8,3.7,4.1v0.3h-6.3c0.1,1.5,1.1,2.7,2.8,2.7c0.9,0,1.8-0.4,2.4-1l0.6,0.8
				c-0.8,0.8-1.8,1.2-3.1,1.2c-2.3,0-3.9-1.6-3.9-4.1C341.1,89.3,342.7,87.5,344.9,87.5z M342.4,91h5.1c0-1.2-0.8-2.6-2.5-2.6
				C343.3,88.5,342.5,89.9,342.4,91z"/>
			<path d="M350.3,96.9c0.5-0.3,1-1,1-1.5c0,0-0.1,0-0.2,0c-0.4,0-0.8-0.3-0.8-0.8s0.4-0.9,0.8-0.9c0.5,0,1,0.4,1,1.2
				c0,1-0.6,1.9-1.3,2.4L350.3,96.9z"/>
			<path d="M364,94.3c-0.6,0.8-1.5,1.3-2.6,1.3c-2,0-3.4-1.5-3.4-4s1.4-4.1,3.4-4.1c1,0,2,0.5,2.6,1.4v-4.1h1.2v10.7H364V94.3z
				 M364,89.8c-0.4-0.7-1.4-1.2-2.3-1.2c-1.6,0-2.5,1.3-2.5,3s0.9,3,2.5,3c1,0,1.9-0.5,2.3-1.2V89.8z"/>
			<path d="M370.9,87.5c2.3,0,3.7,1.8,3.7,4.1v0.3h-6.3c0.1,1.5,1.1,2.7,2.8,2.7c0.9,0,1.8-0.4,2.4-1l0.6,0.8
				c-0.8,0.8-1.8,1.2-3.1,1.2c-2.3,0-3.9-1.6-3.9-4.1C367.1,89.3,368.7,87.5,370.9,87.5z M368.4,91h5.1c0-1.2-0.8-2.6-2.5-2.6
				C369.3,88.5,368.5,89.9,368.4,91z"/>
			<path d="M376.5,93.5c0.5,0.6,1.5,1.1,2.5,1.1c1.2,0,1.8-0.5,1.8-1.3s-0.9-1.1-2-1.4c-1.3-0.3-2.8-0.7-2.8-2.3
				c0-1.2,1-2.2,2.9-2.2c1.3,0,2.2,0.5,2.9,1.1l-0.6,0.8c-0.5-0.6-1.3-1-2.3-1c-1.1,0-1.7,0.5-1.7,1.2c0,0.8,0.9,1,1.9,1.2
				c1.3,0.3,2.9,0.7,2.9,2.4c0,1.3-1,2.3-3,2.3c-1.3,0-2.3-0.4-3.1-1.2L376.5,93.5z"/>
			<path d="M384,98.3V87.7h1.2v1.2c0.6-0.8,1.5-1.3,2.6-1.3c2,0,3.4,1.5,3.4,4s-1.4,4.1-3.4,4.1c-1.1,0-2-0.5-2.6-1.4v4.1L384,98.3
				L384,98.3z M387.5,88.6c-0.9,0-1.9,0.6-2.3,1.2v3.5c0.4,0.7,1.4,1.2,2.3,1.2c1.6,0,2.5-1.3,2.5-3S389.1,88.6,387.5,88.6z"/>
			<path d="M393,85.6c0-0.4,0.4-0.8,0.8-0.8s0.8,0.4,0.8,0.8s-0.4,0.8-0.8,0.8S393,86.1,393,85.6z M393.2,87.7h1.2v7.7h-1.2V87.7z"
				/>
			<path d="M397.1,93.8v-5.1h-1.3v-1.1h1.3v-2.1h1.2v2.1h1.6v1.1h-1.6v4.8c0,0.6,0.3,1,0.8,1c0.3,0,0.7-0.1,0.8-0.3l0.4,0.9
				c-0.3,0.3-0.7,0.5-1.4,0.5C397.6,95.6,397.1,94.9,397.1,93.8z"/>
			<path d="M404.9,87.5c2.3,0,3.7,1.8,3.7,4.1v0.3h-6.3c0.1,1.5,1.1,2.7,2.8,2.7c0.9,0,1.8-0.4,2.4-1l0.6,0.8
				c-0.8,0.8-1.8,1.2-3.1,1.2c-2.3,0-3.9-1.6-3.9-4.1C401.1,89.3,402.7,87.5,404.9,87.5z M402.3,91h5.1c0-1.2-0.8-2.6-2.5-2.6
				C403.2,88.5,402.4,89.9,402.3,91z"/>
			<path d="M414.9,93.8v-5.1h-1.3v-1.1h1.3v-2.1h1.2v2.1h1.6v1.1h-1.6v4.8c0,0.6,0.3,1,0.8,1c0.3,0,0.7-0.1,0.8-0.3l0.4,0.9
				c-0.3,0.3-0.7,0.5-1.4,0.5C415.5,95.6,414.9,94.9,414.9,93.8z"/>
			<path d="M424.6,90.3c0-1.4-0.7-1.8-1.7-1.8c-0.9,0-1.8,0.6-2.3,1.2v5.7h-1.2V84.7h1.2v4.1c0.5-0.6,1.6-1.3,2.8-1.3
				c1.6,0,2.5,0.8,2.5,2.5v5.5h-1.2L424.6,90.3L424.6,90.3z"/>
			<path d="M431.6,87.5c2.3,0,3.7,1.8,3.7,4.1v0.3H429c0.1,1.5,1.1,2.7,2.8,2.7c0.9,0,1.8-0.4,2.4-1l0.6,0.8
				c-0.8,0.8-1.8,1.2-3.1,1.2c-2.3,0-3.9-1.6-3.9-4.1C427.7,89.3,429.3,87.5,431.6,87.5z M429,91h5.1c0-1.2-0.8-2.6-2.5-2.6
				C429.9,88.5,429.1,89.9,429,91z"/>
			<path d="M437,85.6c0-0.4,0.4-0.8,0.8-0.8s0.8,0.4,0.8,0.8s-0.4,0.8-0.8,0.8S437,86.1,437,85.6z M437.2,87.7h1.2v7.7h-1.2V87.7z"
				/>
			<path d="M440.8,87.7h1.2v1.2c0.6-0.8,1.5-1.4,2.6-1.4v1.2c-0.1,0-0.3,0-0.5,0c-0.7,0-1.7,0.6-2.1,1.2v5.5h-1.2V87.7z"/>
			<path d="M455,94.5c-0.6,0.7-1.5,1.1-2.6,1.1c-1.3,0-2.7-0.9-2.7-2.6s1.4-2.5,2.7-2.5c1.1,0,1.9,0.3,2.6,1.1v-1.4
				c0-1-0.8-1.6-2-1.6c-0.9,0-1.7,0.3-2.4,1.1l-0.6-0.8c0.8-0.9,1.8-1.3,3.1-1.3c1.6,0,3,0.7,3,2.6v5.3H455V94.5z M455,92.3
				c-0.5-0.6-1.3-1-2.1-1c-1.1,0-1.9,0.7-1.9,1.7s0.8,1.7,1.9,1.7c0.8,0,1.7-0.3,2.1-1V92.3z"/>
			<path d="M458.6,98.3V87.7h1.2v1.2c0.6-0.8,1.5-1.3,2.6-1.3c2,0,3.4,1.5,3.4,4s-1.4,4.1-3.4,4.1c-1.1,0-2-0.5-2.6-1.4v4.1
				L458.6,98.3L458.6,98.3z M462.1,88.6c-0.9,0-1.9,0.6-2.3,1.2v3.5c0.4,0.7,1.4,1.2,2.3,1.2c1.6,0,2.5-1.3,2.5-3
				S463.7,88.6,462.1,88.6z"/>
			<path d="M467.8,98.3V87.7h1.2v1.2c0.6-0.8,1.5-1.3,2.6-1.3c2,0,3.4,1.5,3.4,4s-1.4,4.1-3.4,4.1c-1.1,0-2-0.5-2.6-1.4v4.1
				L467.8,98.3L467.8,98.3z M471.3,88.6c-0.9,0-1.9,0.6-2.3,1.2v3.5c0.4,0.7,1.4,1.2,2.3,1.2c1.6,0,2.5-1.3,2.5-3
				S472.9,88.6,471.3,88.6z"/>
			<path d="M480.4,87.5c2.3,0,3.7,1.8,3.7,4.1v0.3h-6.3c0.1,1.5,1.1,2.7,2.8,2.7c0.9,0,1.8-0.4,2.4-1l0.6,0.8
				c-0.8,0.8-1.8,1.2-3.1,1.2c-2.3,0-3.9-1.6-3.9-4.1C476.6,89.3,478.2,87.5,480.4,87.5z M477.8,91h5.1c0-1.2-0.8-2.6-2.5-2.6
				C478.7,88.5,477.9,89.9,477.8,91z"/>
			<path d="M490.8,94.5c-0.6,0.7-1.5,1.1-2.6,1.1c-1.3,0-2.7-0.9-2.7-2.6s1.4-2.5,2.7-2.5c1.1,0,1.9,0.3,2.6,1.1v-1.4
				c0-1-0.8-1.6-2-1.6c-0.9,0-1.7,0.3-2.4,1.1l-0.6-0.8c0.8-0.9,1.8-1.3,3.1-1.3c1.6,0,3,0.7,3,2.6v5.3h-1.2v-1H490.8z M490.8,92.3
				c-0.5-0.6-1.3-1-2.1-1c-1.1,0-1.9,0.7-1.9,1.7s0.8,1.7,1.9,1.7c0.8,0,1.7-0.3,2.1-1V92.3z"/>
			<path d="M494.4,87.7h1.2v1.2c0.6-0.8,1.5-1.4,2.6-1.4v1.2c-0.1,0-0.3,0-0.5,0c-0.7,0-1.7,0.6-2.1,1.2v5.5h-1.2V87.7z"/>
			<path d="M504.6,94.5c-0.6,0.7-1.5,1.1-2.6,1.1c-1.3,0-2.7-0.9-2.7-2.6s1.4-2.5,2.7-2.5c1.1,0,1.9,0.3,2.6,1.1v-1.4
				c0-1-0.8-1.6-2-1.6c-0.9,0-1.7,0.3-2.4,1.1l-0.6-0.8c0.8-0.9,1.8-1.3,3.1-1.3c1.6,0,3,0.7,3,2.6v5.3h-1.2v-1H504.6z M504.6,92.3
				c-0.5-0.6-1.3-1-2.1-1c-1.1,0-1.9,0.7-1.9,1.7s0.8,1.7,1.9,1.7c0.8,0,1.7-0.3,2.1-1V92.3z"/>
			<path d="M513.4,90.3c0-1.4-0.7-1.8-1.7-1.8c-0.9,0-1.8,0.6-2.3,1.2v5.7h-1.2v-7.7h1.2v1.1c0.5-0.6,1.6-1.3,2.8-1.3
				c1.6,0,2.5,0.8,2.5,2.5v5.4h-1.2L513.4,90.3L513.4,90.3z"/>
			<path d="M520.4,87.5c1.4,0,2.2,0.6,2.8,1.3l-0.8,0.7c-0.5-0.7-1.2-1-2-1c-1.6,0-2.7,1.3-2.7,3s1,3,2.7,3c0.8,0,1.5-0.3,2-1
				l0.8,0.7c-0.6,0.8-1.4,1.3-2.8,1.3c-2.3,0-3.9-1.8-3.9-4.1C516.5,89.2,518.1,87.5,520.4,87.5z"/>
			<path d="M528.3,87.5c2.3,0,3.7,1.8,3.7,4.1v0.3h-6.3c0.1,1.5,1.1,2.7,2.8,2.7c0.9,0,1.8-0.4,2.4-1l0.6,0.8
				c-0.8,0.8-1.8,1.2-3.1,1.2c-2.3,0-3.9-1.6-3.9-4.1C524.4,89.3,526,87.5,528.3,87.5z M525.7,91h5.1c0-1.2-0.8-2.6-2.5-2.6
				C526.6,88.5,525.8,89.9,525.7,91z"/>
			<path d="M534.5,93.8c0.5,0,0.9,0.4,0.9,0.9s-0.4,0.9-0.9,0.9s-0.9-0.4-0.9-0.9C533.7,94.2,534.1,93.8,534.5,93.8z"/>
		</g>
	</g>
</g>
</svg>
