<?xml version="1.0" encoding="utf-8"?>
<!-- Generator: Adobe Illustrator 23.0.4, SVG Export Plug-In . SVG Version: 6.00 Build 0)  -->
<svg version="1.1" xmlns="http://www.w3.org/2000/svg" xmlns:xlink="http://www.w3.org/1999/xlink" x="0px" y="0px"
	 viewBox="0 0 801.1 260.5" style="enable-background:new 0 0 801.1 260.5;" xml:space="preserve">
<style type="text/css">
	.st0{fill:none;stroke:#D2E0E1;stroke-width:2.2381;stroke-miterlimit:10;}
	.st1{display:none;fill:none;stroke:#040006;stroke-width:0.5;stroke-miterlimit:10;}
	.st2{fill:url(#SVGID_1_);}
	.st3{fill:#7F7F7F;}
	.st4{fill:#211915;}
	.st5{display:none;fill:#009ADA;}
	.st6{font-family:'ProximaNova-Regular';}
	.st7{font-size:16px;}
</style>
<g id="Guides">
</g>
<g id="Lines">
	<g>
		<line class="st0" x1="22.5" y1="26.5" x2="772.5" y2="26.5"/>
	</g>
</g>
<g id="Art">
	<linearGradient id="SVGID_1_" gradientUnits="userSpaceOnUse" x1="21.3217" y1="146.4148" x2="771.8936" y2="146.4148">
		<stop  offset="0" style="stop-color:#FFFFFF"/>
		<stop  offset="1" style="stop-color:#000000"/>
	</linearGradient>
	<rect x="21.3" y="89.1" class="st2" width="750.6" height="114.7"/>
	<rect x="234.2" y="121.3" class="st3" width="24.9" height="50.2"/>
	<rect x="84.4" y="121.3" class="st3" width="24.9" height="50.2"/>
	<rect x="384.1" y="121.3" class="st3" width="24.9" height="50.2"/>
	<rect x="533.9" y="121.3" class="st3" width="24.9" height="50.2"/>
	<rect x="683.9" y="121.3" class="st3" width="24.9" height="50.2"/>
</g>
<g id="Text">
	<g>
		<g>
			<path class="st4" d="M23.7,56.9c1.1,1.2,2.9,2.2,5.1,2.2c1.9,0,2.8-0.9,2.8-1.8c0-1.2-1.4-1.6-3.2-2c-2.6-0.6-6-1.3-6-4.9
				c0-2.7,2.3-4.8,6.1-4.8c2.5,0,4.7,0.8,6.2,2.2l-1.9,2.5c-1.3-1.2-3-1.8-4.6-1.8c-1.5,0-2.4,0.7-2.4,1.6c0,1.1,1.3,1.4,3.2,1.8
				c2.6,0.6,6,1.4,6,4.9c0,2.9-2.1,5.1-6.4,5.1c-3.1,0-5.3-1-6.8-2.5L23.7,56.9z"/>
			<path class="st4" d="M36.9,46.8c0-1,0.8-1.8,1.8-1.8c1,0,1.8,0.8,1.8,1.8s-0.8,1.8-1.8,1.8C37.8,48.7,36.9,47.8,36.9,46.8z
				 M37.2,50.1h3v11.6h-3V50.1z"/>
			<path class="st4" d="M57.7,54.4c0-1.1-0.5-1.8-1.7-1.8c-1.1,0-2,0.7-2.4,1.3v7.8h-3.1v-7.3c0-1.1-0.5-1.8-1.7-1.8
				c-1.1,0-1.9,0.7-2.4,1.4v7.8h-3V50.1h3v1.5c0.5-0.7,2-1.8,3.8-1.8c1.7,0,2.8,0.8,3.2,2.1c0.7-1.1,2.2-2.1,4-2.1
				c2.1,0,3.4,1.1,3.4,3.5v8.4h-3.1V54.4z"/>
			<path class="st4" d="M71.6,60.3c-0.8,0.9-2.2,1.8-4.1,1.8c-2.5,0-3.7-1.4-3.7-3.6v-8.2h3v7c0,1.6,0.8,2.1,2.1,2.1
				c1.2,0,2.1-0.6,2.6-1.3v-7.8h3v11.6h-3V60.3z"/>
			<path class="st4" d="M77.6,45.7h3v16h-3V45.7z"/>
			<path class="st4" d="M84.3,58.9v-6h-1.9v-2.7h1.9V47h3.1v3.2h2.4v2.7h-2.4V58c0,0.7,0.4,1.3,1.1,1.3c0.5,0,0.9-0.2,1.1-0.3
				l0.6,2.3c-0.5,0.4-1.3,0.7-2.5,0.7C85.5,62,84.3,60.9,84.3,58.9z"/>
			<path class="st4" d="M98.8,60.5C98,61.5,96.6,62,95.1,62c-1.8,0-4-1.2-4-3.8c0-2.7,2.2-3.7,4-3.7c1.5,0,2.9,0.5,3.7,1.4v-1.6
				c0-1.2-1-1.9-2.5-1.9c-1.2,0-2.4,0.5-3.4,1.4l-1.2-2c1.4-1.2,3.2-1.8,5.1-1.8c2.6,0,5.1,1.1,5.1,4.4v7.5h-3V60.5z M98.8,57.5
				c-0.5-0.7-1.5-1-2.4-1c-1.2,0-2.2,0.6-2.2,1.8c0,1.1,1,1.7,2.2,1.7c1,0,1.9-0.3,2.4-1V57.5z"/>
			<path class="st4" d="M112.7,54.7c0-1.6-0.8-2.2-2.1-2.2c-1.2,0-2.1,0.7-2.6,1.4v7.8h-3V50.1h3v1.5c0.7-0.9,2.2-1.8,4.1-1.8
				c2.5,0,3.8,1.4,3.8,3.7v8.2h-3V54.7z"/>
			<path class="st4" d="M124,49.9c3.5,0,5.8,2.6,5.8,6.4v0.7h-8.6c0.2,1.5,1.4,2.7,3.3,2.7c1.1,0,2.4-0.4,3.1-1.2l1.3,2
				c-1.2,1.1-3,1.6-4.8,1.6c-3.5,0-6.2-2.4-6.2-6.1C118,52.6,120.5,49.9,124,49.9z M121.2,54.8h5.7c-0.1-1.1-0.8-2.6-2.9-2.6
				C122.1,52.3,121.3,53.7,121.2,54.8z"/>
			<path class="st4" d="M131.3,55.9c0-3.3,2.3-6.1,6.1-6.1c3.8,0,6.1,2.8,6.1,6.1c0,3.3-2.3,6.1-6.1,6.1
				C133.6,62,131.3,59.2,131.3,55.9z M140.4,55.9c0-1.8-1.1-3.4-3-3.4s-3,1.6-3,3.4c0,1.8,1.1,3.4,3,3.4S140.4,57.8,140.4,55.9z"/>
			<path class="st4" d="M153.6,60.3c-0.8,0.9-2.2,1.8-4.1,1.8c-2.5,0-3.7-1.4-3.7-3.6v-8.2h3v7c0,1.6,0.8,2.1,2.1,2.1
				c1.2,0,2.1-0.6,2.6-1.3v-7.8h3v11.6h-3V60.3z"/>
			<path class="st4" d="M160,58.1c0.8,0.8,2.6,1.6,4,1.6c1.3,0,1.9-0.5,1.9-1.2c0-0.8-1-1.1-2.3-1.4c-2-0.4-4.6-0.9-4.6-3.6
				c0-1.9,1.7-3.6,4.8-3.6c2,0,3.5,0.7,4.7,1.6l-1.2,2.1c-0.7-0.7-2-1.3-3.4-1.3c-1.1,0-1.8,0.4-1.8,1.1c0,0.7,0.9,1,2.2,1.2
				c2,0.4,4.7,0.9,4.7,3.8c0,2.1-1.8,3.7-5,3.7c-2,0-4-0.7-5.2-1.8L160,58.1z"/>
			<path class="st4" d="M182.7,49.9c2.4,0,3.8,1,4.6,2.1l-2,1.8c-0.6-0.8-1.4-1.2-2.4-1.2c-1.8,0-3.1,1.3-3.1,3.4
				c0,2,1.3,3.4,3.1,3.4c1.1,0,1.9-0.5,2.4-1.2l2,1.8c-0.8,1.1-2.2,2.1-4.6,2.1c-3.6,0-6.1-2.5-6.1-6.1
				C176.5,52.4,179.1,49.9,182.7,49.9z"/>
			<path class="st4" d="M188.5,55.9c0-3.3,2.3-6.1,6.1-6.1c3.8,0,6.1,2.8,6.1,6.1c0,3.3-2.3,6.1-6.1,6.1
				C190.8,62,188.5,59.2,188.5,55.9z M197.6,55.9c0-1.8-1.1-3.4-3-3.4s-3,1.6-3,3.4c0,1.8,1.1,3.4,3,3.4S197.6,57.8,197.6,55.9z"/>
			<path class="st4" d="M210.9,54.7c0-1.6-0.8-2.2-2.1-2.2c-1.2,0-2.1,0.7-2.6,1.4v7.8h-3V50.1h3v1.5c0.7-0.9,2.2-1.8,4.1-1.8
				c2.5,0,3.8,1.4,3.8,3.7v8.2h-3V54.7z"/>
			<path class="st4" d="M217.5,58.9v-6h-1.9v-2.7h1.9V47h3.1v3.2h2.4v2.7h-2.4V58c0,0.7,0.4,1.3,1.1,1.3c0.5,0,0.9-0.2,1.1-0.3
				l0.6,2.3c-0.5,0.4-1.3,0.7-2.5,0.7C218.7,62,217.5,60.9,217.5,58.9z"/>
			<path class="st4" d="M225.1,50.1h3v1.6c0.8-1,2.3-1.8,3.7-1.8v3c-0.2,0-0.5-0.1-0.8-0.1c-1,0-2.4,0.6-2.9,1.3v7.7h-3V50.1z"/>
			<path class="st4" d="M240.7,60.5c-0.8,0.9-2.2,1.5-3.7,1.5c-1.8,0-4-1.2-4-3.8c0-2.7,2.2-3.7,4-3.7c1.5,0,2.9,0.5,3.7,1.4v-1.6
				c0-1.2-1-1.9-2.5-1.9c-1.2,0-2.4,0.5-3.4,1.4l-1.2-2c1.4-1.2,3.2-1.8,5.1-1.8c2.6,0,5.1,1.1,5.1,4.4v7.5h-3V60.5z M240.7,57.5
				c-0.5-0.7-1.5-1-2.4-1c-1.2,0-2.2,0.6-2.2,1.8c0,1.1,1,1.7,2.2,1.7c1,0,1.9-0.3,2.4-1V57.5z"/>
			<path class="st4" d="M247,58.1c0.8,0.8,2.6,1.6,4,1.6c1.3,0,1.9-0.5,1.9-1.2c0-0.8-1-1.1-2.3-1.4c-2-0.4-4.6-0.9-4.6-3.6
				c0-1.9,1.7-3.6,4.8-3.6c2,0,3.5,0.7,4.7,1.6l-1.2,2.1c-0.7-0.7-2-1.3-3.4-1.3c-1.1,0-1.8,0.4-1.8,1.1c0,0.7,0.9,1,2.2,1.2
				c2,0.4,4.7,0.9,4.7,3.8c0,2.1-1.8,3.7-5,3.7c-2,0-4-0.7-5.2-1.8L247,58.1z"/>
			<path class="st4" d="M258.8,58.9v-6h-1.9v-2.7h1.9V47h3.1v3.2h2.4v2.7h-2.4V58c0,0.7,0.4,1.3,1.1,1.3c0.5,0,0.9-0.2,1.1-0.3
				l0.6,2.3c-0.5,0.4-1.3,0.7-2.5,0.7C259.9,62,258.8,60.9,258.8,58.9z"/>
		</g>
	</g>
	<text transform="matrix(1 0 0 1 349.1703 223.6516)" class="st5 st6 st7">More DNA</text>
	<g>
		<g>
			<path class="st4" d="M618.1,234.7c0.5,0.6,1.2,0.9,2,0.9c0.9,0,1.5-0.6,1.5-1.3c0-0.8-0.6-1.3-1.5-1.3c-0.6,0-1.1,0.2-1.6,0.6
				l-0.9-0.3v-4.1h4.8v1.1h-3.5v2.1c0.4-0.4,1-0.6,1.7-0.6c1.2,0,2.3,0.9,2.3,2.4c0,1.5-1.2,2.5-2.8,2.5c-1.3,0-2.1-0.4-2.7-1.1
				L618.1,234.7z"/>
			<path class="st4" d="M628.1,231.2l-1.4,5.4h-1.4l-2.1-7.3h1.4l1.4,5.7l1.5-5.7h1l1.5,5.7l1.4-5.7h1.4l-2.1,7.3h-1.4L628.1,231.2z
				"/>
			<path class="st4" d="M636.2,229.2h1.3v7.3h-1.3V229.2z"/>
			<path class="st4" d="M640.1,231.2v5.3h-1.3v-7.3h1.3l3.8,5.2v-5.2h1.3v7.3h-1.2L640.1,231.2z"/>
			<path class="st4" d="M646.5,229.2h5v1.1h-3.7v1.9h3.7v1.1h-3.7v3.2h-1.3V229.2z"/>
			<path class="st4" d="M655.9,229.1c2.2,0,3.8,1.6,3.8,3.8s-1.6,3.8-3.8,3.8s-3.8-1.6-3.8-3.8S653.7,229.1,655.9,229.1z
				 M655.9,230.3c-1.5,0-2.4,1.1-2.4,2.7c0,1.5,0.9,2.7,2.4,2.7c1.5,0,2.4-1.1,2.4-2.7C658.3,231.4,657.3,230.3,655.9,230.3z"/>
			<path class="st4" d="M664.2,229.1c1.4,0,2.4,0.7,3,1.5l-1.1,0.6c-0.4-0.5-1.1-1-1.9-1c-1.5,0-2.5,1.1-2.5,2.7s1.1,2.7,2.5,2.7
				c0.7,0,1.4-0.4,1.7-0.7v-1.1h-2.2v-1.1h3.5v2.8c-0.7,0.8-1.8,1.3-3,1.3c-2.1,0-3.9-1.5-3.9-3.8S662,229.1,664.2,229.1z"/>
			<path class="st4" d="M670.8,233.8h-1.3v2.7h-1.3v-7.3h3.2c1.5,0,2.4,0.9,2.4,2.3c0,1.3-0.9,2-1.7,2.2l1.8,2.9h-1.5L670.8,233.8z
				 M671.3,230.4h-1.8v2.3h1.8c0.7,0,1.3-0.5,1.3-1.2S672.1,230.4,671.3,230.4z"/>
			<path class="st4" d="M679.6,235.2h-3.5l-0.5,1.4h-1.4l2.9-7.3h1.6l2.9,7.3h-1.4L679.6,235.2z M676.5,234h2.8l-1.4-3.7L676.5,234z
				"/>
			<path class="st4" d="M682.1,229.2h3.2c1.5,0,2.4,1.1,2.4,2.3s-0.9,2.3-2.4,2.3h-1.9v2.7h-1.3V229.2z M685.2,230.4h-1.8v2.3h1.8
				c0.7,0,1.3-0.5,1.3-1.2S685.9,230.4,685.2,230.4z"/>
			<path class="st4" d="M693.7,233.4h-3.8v3.2h-1.3v-7.3h1.3v3h3.8v-3h1.3v7.3h-1.3V233.4z"/>
			<path class="st4" d="M696.3,229.2h1.3v7.3h-1.3V229.2z"/>
			<path class="st4" d="M698.6,232.9c0-2.3,1.7-3.8,3.8-3.8c1.5,0,2.5,0.8,3,1.7l-1.1,0.6c-0.4-0.6-1.1-1.1-1.9-1.1
				c-1.4,0-2.5,1.1-2.5,2.7s1.1,2.7,2.5,2.7c0.8,0,1.6-0.5,1.9-1.1l1.1,0.6c-0.6,0.9-1.5,1.6-3,1.6
				C700.3,236.7,698.6,235.2,698.6,232.9z"/>
			<path class="st4" d="M710.6,229h0.9l-2.6,7.8H708L710.6,229z"/>
			<path class="st4" d="M716.6,233.5l-0.6,0.7v2.3h-1.3v-7.3h1.3v3.5l2.9-3.5h1.6l-3,3.5l3.2,3.9H719L716.6,233.5z"/>
			<path class="st4" d="M722.5,231.2v5.3h-1.3v-7.3h1.3l3.8,5.2v-5.2h1.3v7.3h-1.2L722.5,231.2z"/>
			<path class="st4" d="M732.3,229.1c2.2,0,3.8,1.6,3.8,3.8s-1.6,3.8-3.8,3.8s-3.8-1.6-3.8-3.8S730.1,229.1,732.3,229.1z
				 M732.3,230.3c-1.5,0-2.4,1.1-2.4,2.7c0,1.5,0.9,2.7,2.4,2.7c1.5,0,2.4-1.1,2.4-2.7C734.8,231.4,733.8,230.3,732.3,230.3z"/>
			<path class="st4" d="M741.3,231.2l-1.4,5.4h-1.4l-2.1-7.3h1.4l1.4,5.7l1.5-5.7h1l1.5,5.7l1.4-5.7h1.4l-2.1,7.3h-1.4L741.3,231.2z
				"/>
			<path class="st4" d="M751.5,235.2H748l-0.5,1.4H746l2.9-7.3h1.6l2.9,7.3H752L751.5,235.2z M748.3,234h2.8l-1.4-3.7L748.3,234z"/>
			<path class="st4" d="M754,229.2h3.6c1.3,0,2.1,0.8,2.1,1.9c0,0.9-0.6,1.5-1.3,1.7c0.8,0.1,1.4,0.9,1.4,1.8c0,1.1-0.8,2-2.1,2H754
				V229.2z M757.3,232.3c0.7,0,1-0.4,1-0.9c0-0.6-0.4-1-1-1h-2.1v1.9H757.3z M757.4,235.4c0.7,0,1.1-0.4,1.1-1c0-0.6-0.4-1-1.1-1
				h-2.1v2H757.4z"/>
			<path class="st4" d="M760.9,229.2h1.3v6.2h3.2v1.1h-4.5V229.2z"/>
			<path class="st4" d="M766.3,229.2h5v1.1h-3.7v1.9h3.7v1.1h-3.7v2h3.7v1.1h-5V229.2z"/>
		</g>
	</g>
</g>
</svg>
